<?xml version="1.0" encoding="utf-8" standalone="no"?>
<!DOCTYPE svg PUBLIC "-//W3C//DTD SVG 1.1//EN"
  "http://www.w3.org/Graphics/SVG/1.1/DTD/svg11.dtd">
<svg xmlns:xlink="http://www.w3.org/1999/xlink" width="416.695pt" height="310.86825pt" viewBox="0 0 416.695 310.86825" xmlns="http://www.w3.org/2000/svg" version="1.1">
 <metadata>
  <rdf:RDF xmlns:dc="http://purl.org/dc/elements/1.1/" xmlns:cc="http://creativecommons.org/ns#" xmlns:rdf="http://www.w3.org/1999/02/22-rdf-syntax-ns#">
   <cc:Work>
    <dc:type rdf:resource="http://purl.org/dc/dcmitype/StillImage"/>
    <dc:date>2022-11-25T19:31:53.490087</dc:date>
    <dc:format>image/svg+xml</dc:format>
    <dc:creator>
     <cc:Agent>
      <dc:title>Matplotlib v3.6.2, https://matplotlib.org/</dc:title>
     </cc:Agent>
    </dc:creator>
   </cc:Work>
  </rdf:RDF>
 </metadata>
 <defs>
  <style type="text/css">*{stroke-linejoin: round; stroke-linecap: butt}</style>
 </defs>
 <g id="figure_1">
  <g id="patch_1">
   <path d="M 0 310.86825 
L 416.695 310.86825 
L 416.695 0 
L 0 0 
z
" style="fill: #ffffff"/>
  </g>
  <g id="axes_1">
   <g id="patch_2">
    <path d="M 52.375 273.312 
L 409.495 273.312 
L 409.495 7.2 
L 52.375 7.2 
z
" style="fill: #ffffff"/>
   </g>
   <g id="matplotlib.axis_1">
    <g id="xtick_1">
     <g id="line2d_1">
      <defs>
       <path id="m8e84d53035" d="M 0 0 
L 0 3.5 
" style="stroke: #000000; stroke-width: 0.8"/>
      </defs>
      <g>
       <use xlink:href="#m8e84d53035" x="68.607727" y="273.312" style="stroke: #000000; stroke-width: 0.8"/>
      </g>
     </g>
     <g id="text_1">
      <!-- 0 -->
      <g transform="translate(65.426477 287.910437) scale(0.1 -0.1)">
       <defs>
        <path id="DejaVuSans-30" d="M 2034 4250 
Q 1547 4250 1301 3770 
Q 1056 3291 1056 2328 
Q 1056 1369 1301 889 
Q 1547 409 2034 409 
Q 2525 409 2770 889 
Q 3016 1369 3016 2328 
Q 3016 3291 2770 3770 
Q 2525 4250 2034 4250 
z
M 2034 4750 
Q 2819 4750 3233 4129 
Q 3647 3509 3647 2328 
Q 3647 1150 3233 529 
Q 2819 -91 2034 -91 
Q 1250 -91 836 529 
Q 422 1150 422 2328 
Q 422 3509 836 4129 
Q 1250 4750 2034 4750 
z
" transform="scale(0.015625)"/>
       </defs>
       <use xlink:href="#DejaVuSans-30"/>
      </g>
     </g>
    </g>
    <g id="xtick_2">
     <g id="line2d_2">
      <g>
       <use xlink:href="#m8e84d53035" x="128.952438" y="273.312" style="stroke: #000000; stroke-width: 0.8"/>
      </g>
     </g>
     <g id="text_2">
      <!-- 50 -->
      <g transform="translate(122.589938 287.910437) scale(0.1 -0.1)">
       <defs>
        <path id="DejaVuSans-35" d="M 691 4666 
L 3169 4666 
L 3169 4134 
L 1269 4134 
L 1269 2991 
Q 1406 3038 1543 3061 
Q 1681 3084 1819 3084 
Q 2600 3084 3056 2656 
Q 3513 2228 3513 1497 
Q 3513 744 3044 326 
Q 2575 -91 1722 -91 
Q 1428 -91 1123 -41 
Q 819 9 494 109 
L 494 744 
Q 775 591 1075 516 
Q 1375 441 1709 441 
Q 2250 441 2565 725 
Q 2881 1009 2881 1497 
Q 2881 1984 2565 2268 
Q 2250 2553 1709 2553 
Q 1456 2553 1204 2497 
Q 953 2441 691 2322 
L 691 4666 
z
" transform="scale(0.015625)"/>
       </defs>
       <use xlink:href="#DejaVuSans-35"/>
       <use xlink:href="#DejaVuSans-30" x="63.623047"/>
      </g>
     </g>
    </g>
    <g id="xtick_3">
     <g id="line2d_3">
      <g>
       <use xlink:href="#m8e84d53035" x="189.297149" y="273.312" style="stroke: #000000; stroke-width: 0.8"/>
      </g>
     </g>
     <g id="text_3">
      <!-- 100 -->
      <g transform="translate(179.753399 287.910437) scale(0.1 -0.1)">
       <defs>
        <path id="DejaVuSans-31" d="M 794 531 
L 1825 531 
L 1825 4091 
L 703 3866 
L 703 4441 
L 1819 4666 
L 2450 4666 
L 2450 531 
L 3481 531 
L 3481 0 
L 794 0 
L 794 531 
z
" transform="scale(0.015625)"/>
       </defs>
       <use xlink:href="#DejaVuSans-31"/>
       <use xlink:href="#DejaVuSans-30" x="63.623047"/>
       <use xlink:href="#DejaVuSans-30" x="127.246094"/>
      </g>
     </g>
    </g>
    <g id="xtick_4">
     <g id="line2d_4">
      <g>
       <use xlink:href="#m8e84d53035" x="249.64186" y="273.312" style="stroke: #000000; stroke-width: 0.8"/>
      </g>
     </g>
     <g id="text_4">
      <!-- 150 -->
      <g transform="translate(240.09811 287.910437) scale(0.1 -0.1)">
       <use xlink:href="#DejaVuSans-31"/>
       <use xlink:href="#DejaVuSans-35" x="63.623047"/>
       <use xlink:href="#DejaVuSans-30" x="127.246094"/>
      </g>
     </g>
    </g>
    <g id="xtick_5">
     <g id="line2d_5">
      <g>
       <use xlink:href="#m8e84d53035" x="309.986571" y="273.312" style="stroke: #000000; stroke-width: 0.8"/>
      </g>
     </g>
     <g id="text_5">
      <!-- 200 -->
      <g transform="translate(300.442821 287.910437) scale(0.1 -0.1)">
       <defs>
        <path id="DejaVuSans-32" d="M 1228 531 
L 3431 531 
L 3431 0 
L 469 0 
L 469 531 
Q 828 903 1448 1529 
Q 2069 2156 2228 2338 
Q 2531 2678 2651 2914 
Q 2772 3150 2772 3378 
Q 2772 3750 2511 3984 
Q 2250 4219 1831 4219 
Q 1534 4219 1204 4116 
Q 875 4013 500 3803 
L 500 4441 
Q 881 4594 1212 4672 
Q 1544 4750 1819 4750 
Q 2544 4750 2975 4387 
Q 3406 4025 3406 3419 
Q 3406 3131 3298 2873 
Q 3191 2616 2906 2266 
Q 2828 2175 2409 1742 
Q 1991 1309 1228 531 
z
" transform="scale(0.015625)"/>
       </defs>
       <use xlink:href="#DejaVuSans-32"/>
       <use xlink:href="#DejaVuSans-30" x="63.623047"/>
       <use xlink:href="#DejaVuSans-30" x="127.246094"/>
      </g>
     </g>
    </g>
    <g id="xtick_6">
     <g id="line2d_6">
      <g>
       <use xlink:href="#m8e84d53035" x="370.331283" y="273.312" style="stroke: #000000; stroke-width: 0.8"/>
      </g>
     </g>
     <g id="text_6">
      <!-- 250 -->
      <g transform="translate(360.787533 287.910437) scale(0.1 -0.1)">
       <use xlink:href="#DejaVuSans-32"/>
       <use xlink:href="#DejaVuSans-35" x="63.623047"/>
       <use xlink:href="#DejaVuSans-30" x="127.246094"/>
      </g>
     </g>
    </g>
    <g id="text_7">
     <!-- Unnamed: 0 -->
     <g transform="translate(200.298281 301.588562) scale(0.1 -0.1)">
      <defs>
       <path id="DejaVuSans-55" d="M 556 4666 
L 1191 4666 
L 1191 1831 
Q 1191 1081 1462 751 
Q 1734 422 2344 422 
Q 2950 422 3222 751 
Q 3494 1081 3494 1831 
L 3494 4666 
L 4128 4666 
L 4128 1753 
Q 4128 841 3676 375 
Q 3225 -91 2344 -91 
Q 1459 -91 1007 375 
Q 556 841 556 1753 
L 556 4666 
z
" transform="scale(0.015625)"/>
       <path id="DejaVuSans-6e" d="M 3513 2113 
L 3513 0 
L 2938 0 
L 2938 2094 
Q 2938 2591 2744 2837 
Q 2550 3084 2163 3084 
Q 1697 3084 1428 2787 
Q 1159 2491 1159 1978 
L 1159 0 
L 581 0 
L 581 3500 
L 1159 3500 
L 1159 2956 
Q 1366 3272 1645 3428 
Q 1925 3584 2291 3584 
Q 2894 3584 3203 3211 
Q 3513 2838 3513 2113 
z
" transform="scale(0.015625)"/>
       <path id="DejaVuSans-61" d="M 2194 1759 
Q 1497 1759 1228 1600 
Q 959 1441 959 1056 
Q 959 750 1161 570 
Q 1363 391 1709 391 
Q 2188 391 2477 730 
Q 2766 1069 2766 1631 
L 2766 1759 
L 2194 1759 
z
M 3341 1997 
L 3341 0 
L 2766 0 
L 2766 531 
Q 2569 213 2275 61 
Q 1981 -91 1556 -91 
Q 1019 -91 701 211 
Q 384 513 384 1019 
Q 384 1609 779 1909 
Q 1175 2209 1959 2209 
L 2766 2209 
L 2766 2266 
Q 2766 2663 2505 2880 
Q 2244 3097 1772 3097 
Q 1472 3097 1187 3025 
Q 903 2953 641 2809 
L 641 3341 
Q 956 3463 1253 3523 
Q 1550 3584 1831 3584 
Q 2591 3584 2966 3190 
Q 3341 2797 3341 1997 
z
" transform="scale(0.015625)"/>
       <path id="DejaVuSans-6d" d="M 3328 2828 
Q 3544 3216 3844 3400 
Q 4144 3584 4550 3584 
Q 5097 3584 5394 3201 
Q 5691 2819 5691 2113 
L 5691 0 
L 5113 0 
L 5113 2094 
Q 5113 2597 4934 2840 
Q 4756 3084 4391 3084 
Q 3944 3084 3684 2787 
Q 3425 2491 3425 1978 
L 3425 0 
L 2847 0 
L 2847 2094 
Q 2847 2600 2669 2842 
Q 2491 3084 2119 3084 
Q 1678 3084 1418 2786 
Q 1159 2488 1159 1978 
L 1159 0 
L 581 0 
L 581 3500 
L 1159 3500 
L 1159 2956 
Q 1356 3278 1631 3431 
Q 1906 3584 2284 3584 
Q 2666 3584 2933 3390 
Q 3200 3197 3328 2828 
z
" transform="scale(0.015625)"/>
       <path id="DejaVuSans-65" d="M 3597 1894 
L 3597 1613 
L 953 1613 
Q 991 1019 1311 708 
Q 1631 397 2203 397 
Q 2534 397 2845 478 
Q 3156 559 3463 722 
L 3463 178 
Q 3153 47 2828 -22 
Q 2503 -91 2169 -91 
Q 1331 -91 842 396 
Q 353 884 353 1716 
Q 353 2575 817 3079 
Q 1281 3584 2069 3584 
Q 2775 3584 3186 3129 
Q 3597 2675 3597 1894 
z
M 3022 2063 
Q 3016 2534 2758 2815 
Q 2500 3097 2075 3097 
Q 1594 3097 1305 2825 
Q 1016 2553 972 2059 
L 3022 2063 
z
" transform="scale(0.015625)"/>
       <path id="DejaVuSans-64" d="M 2906 2969 
L 2906 4863 
L 3481 4863 
L 3481 0 
L 2906 0 
L 2906 525 
Q 2725 213 2448 61 
Q 2172 -91 1784 -91 
Q 1150 -91 751 415 
Q 353 922 353 1747 
Q 353 2572 751 3078 
Q 1150 3584 1784 3584 
Q 2172 3584 2448 3432 
Q 2725 3281 2906 2969 
z
M 947 1747 
Q 947 1113 1208 752 
Q 1469 391 1925 391 
Q 2381 391 2643 752 
Q 2906 1113 2906 1747 
Q 2906 2381 2643 2742 
Q 2381 3103 1925 3103 
Q 1469 3103 1208 2742 
Q 947 2381 947 1747 
z
" transform="scale(0.015625)"/>
       <path id="DejaVuSans-3a" d="M 750 794 
L 1409 794 
L 1409 0 
L 750 0 
L 750 794 
z
M 750 3309 
L 1409 3309 
L 1409 2516 
L 750 2516 
L 750 3309 
z
" transform="scale(0.015625)"/>
       <path id="DejaVuSans-20" transform="scale(0.015625)"/>
      </defs>
      <use xlink:href="#DejaVuSans-55"/>
      <use xlink:href="#DejaVuSans-6e" x="73.193359"/>
      <use xlink:href="#DejaVuSans-6e" x="136.572266"/>
      <use xlink:href="#DejaVuSans-61" x="199.951172"/>
      <use xlink:href="#DejaVuSans-6d" x="261.230469"/>
      <use xlink:href="#DejaVuSans-65" x="358.642578"/>
      <use xlink:href="#DejaVuSans-64" x="420.166016"/>
      <use xlink:href="#DejaVuSans-3a" x="483.642578"/>
      <use xlink:href="#DejaVuSans-20" x="517.333984"/>
      <use xlink:href="#DejaVuSans-30" x="549.121094"/>
     </g>
    </g>
   </g>
   <g id="matplotlib.axis_2">
    <g id="ytick_1">
     <g id="line2d_7">
      <defs>
       <path id="m20bac63175" d="M 0 0 
L -3.5 0 
" style="stroke: #000000; stroke-width: 0.8"/>
      </defs>
      <g>
       <use xlink:href="#m20bac63175" x="52.375" y="260.465275" style="stroke: #000000; stroke-width: 0.8"/>
      </g>
     </g>
     <g id="text_8">
      <!-- 0 -->
      <g transform="translate(39.0125 264.264493) scale(0.1 -0.1)">
       <use xlink:href="#DejaVuSans-30"/>
      </g>
     </g>
    </g>
    <g id="ytick_2">
     <g id="line2d_8">
      <g>
       <use xlink:href="#m20bac63175" x="52.375" y="225.141332" style="stroke: #000000; stroke-width: 0.8"/>
      </g>
     </g>
     <g id="text_9">
      <!-- 25000 -->
      <g transform="translate(13.5625 228.940551) scale(0.1 -0.1)">
       <use xlink:href="#DejaVuSans-32"/>
       <use xlink:href="#DejaVuSans-35" x="63.623047"/>
       <use xlink:href="#DejaVuSans-30" x="127.246094"/>
       <use xlink:href="#DejaVuSans-30" x="190.869141"/>
       <use xlink:href="#DejaVuSans-30" x="254.492188"/>
      </g>
     </g>
    </g>
    <g id="ytick_3">
     <g id="line2d_9">
      <g>
       <use xlink:href="#m20bac63175" x="52.375" y="189.817389" style="stroke: #000000; stroke-width: 0.8"/>
      </g>
     </g>
     <g id="text_10">
      <!-- 50000 -->
      <g transform="translate(13.5625 193.616608) scale(0.1 -0.1)">
       <use xlink:href="#DejaVuSans-35"/>
       <use xlink:href="#DejaVuSans-30" x="63.623047"/>
       <use xlink:href="#DejaVuSans-30" x="127.246094"/>
       <use xlink:href="#DejaVuSans-30" x="190.869141"/>
       <use xlink:href="#DejaVuSans-30" x="254.492188"/>
      </g>
     </g>
    </g>
    <g id="ytick_4">
     <g id="line2d_10">
      <g>
       <use xlink:href="#m20bac63175" x="52.375" y="154.493446" style="stroke: #000000; stroke-width: 0.8"/>
      </g>
     </g>
     <g id="text_11">
      <!-- 75000 -->
      <g transform="translate(13.5625 158.292665) scale(0.1 -0.1)">
       <defs>
        <path id="DejaVuSans-37" d="M 525 4666 
L 3525 4666 
L 3525 4397 
L 1831 0 
L 1172 0 
L 2766 4134 
L 525 4134 
L 525 4666 
z
" transform="scale(0.015625)"/>
       </defs>
       <use xlink:href="#DejaVuSans-37"/>
       <use xlink:href="#DejaVuSans-35" x="63.623047"/>
       <use xlink:href="#DejaVuSans-30" x="127.246094"/>
       <use xlink:href="#DejaVuSans-30" x="190.869141"/>
       <use xlink:href="#DejaVuSans-30" x="254.492188"/>
      </g>
     </g>
    </g>
    <g id="ytick_5">
     <g id="line2d_11">
      <g>
       <use xlink:href="#m20bac63175" x="52.375" y="119.169503" style="stroke: #000000; stroke-width: 0.8"/>
      </g>
     </g>
     <g id="text_12">
      <!-- 100000 -->
      <g transform="translate(7.2 122.968722) scale(0.1 -0.1)">
       <use xlink:href="#DejaVuSans-31"/>
       <use xlink:href="#DejaVuSans-30" x="63.623047"/>
       <use xlink:href="#DejaVuSans-30" x="127.246094"/>
       <use xlink:href="#DejaVuSans-30" x="190.869141"/>
       <use xlink:href="#DejaVuSans-30" x="254.492188"/>
       <use xlink:href="#DejaVuSans-30" x="318.115234"/>
      </g>
     </g>
    </g>
    <g id="ytick_6">
     <g id="line2d_12">
      <g>
       <use xlink:href="#m20bac63175" x="52.375" y="83.84556" style="stroke: #000000; stroke-width: 0.8"/>
      </g>
     </g>
     <g id="text_13">
      <!-- 125000 -->
      <g transform="translate(7.2 87.644779) scale(0.1 -0.1)">
       <use xlink:href="#DejaVuSans-31"/>
       <use xlink:href="#DejaVuSans-32" x="63.623047"/>
       <use xlink:href="#DejaVuSans-35" x="127.246094"/>
       <use xlink:href="#DejaVuSans-30" x="190.869141"/>
       <use xlink:href="#DejaVuSans-30" x="254.492188"/>
       <use xlink:href="#DejaVuSans-30" x="318.115234"/>
      </g>
     </g>
    </g>
    <g id="ytick_7">
     <g id="line2d_13">
      <g>
       <use xlink:href="#m20bac63175" x="52.375" y="48.521617" style="stroke: #000000; stroke-width: 0.8"/>
      </g>
     </g>
     <g id="text_14">
      <!-- 150000 -->
      <g transform="translate(7.2 52.320836) scale(0.1 -0.1)">
       <use xlink:href="#DejaVuSans-31"/>
       <use xlink:href="#DejaVuSans-35" x="63.623047"/>
       <use xlink:href="#DejaVuSans-30" x="127.246094"/>
       <use xlink:href="#DejaVuSans-30" x="190.869141"/>
       <use xlink:href="#DejaVuSans-30" x="254.492188"/>
       <use xlink:href="#DejaVuSans-30" x="318.115234"/>
      </g>
     </g>
    </g>
    <g id="ytick_8">
     <g id="line2d_14">
      <g>
       <use xlink:href="#m20bac63175" x="52.375" y="13.197675" style="stroke: #000000; stroke-width: 0.8"/>
      </g>
     </g>
     <g id="text_15">
      <!-- 175000 -->
      <g transform="translate(7.2 16.996893) scale(0.1 -0.1)">
       <use xlink:href="#DejaVuSans-31"/>
       <use xlink:href="#DejaVuSans-37" x="63.623047"/>
       <use xlink:href="#DejaVuSans-35" x="127.246094"/>
       <use xlink:href="#DejaVuSans-30" x="190.869141"/>
       <use xlink:href="#DejaVuSans-30" x="254.492188"/>
       <use xlink:href="#DejaVuSans-30" x="318.115234"/>
      </g>
     </g>
    </g>
   </g>
   <g id="line2d_15">
    <path d="M 68.607727 116.45945 
L 69.814621 199.158452 
L 71.021516 174.294635 
L 72.22841 195.787135 
L 73.435304 162.480896 
L 74.642198 176.531348 
L 75.849093 192.439838 
L 77.055987 184.499016 
L 79.469775 143.432813 
L 80.676669 23.975716 
L 81.883564 98.055676 
L 83.090458 193.718565 
L 84.297352 167.624062 
L 85.504246 19.296 
L 86.711141 186.916587 
L 87.918035 157.566629 
L 89.124929 143.647583 
L 90.331823 155.65631 
L 91.538717 182.687604 
L 92.745612 131.79428 
L 93.952506 191.617497 
L 95.1594 140.086929 
L 96.366294 159.272069 
L 98.780083 185.485261 
L 99.986977 191.305233 
L 101.193871 179.939402 
L 102.400765 155.678918 
L 103.60766 170.62801 
L 104.814554 193.773671 
L 106.021448 166.016116 
L 108.435237 128.767725 
L 109.642131 152.041964 
L 110.849025 152.101309 
L 112.055919 194.686441 
L 113.262813 163.818967 
L 114.469708 167.043336 
L 115.676602 157.329252 
L 116.883496 155.755217 
L 118.09039 191.611845 
L 119.297285 200.027421 
L 120.504179 182.027753 
L 121.711073 180.94684 
L 122.917967 181.021727 
L 124.124861 164.767062 
L 125.331756 179.593227 
L 126.53865 154.3903 
L 127.745544 181.695708 
L 128.952438 124.518961 
L 131.366227 193.249463 
L 132.573121 183.151054 
L 133.780015 73.608682 
L 134.986909 151.425915 
L 136.193804 159.797689 
L 137.400698 140.095407 
L 138.607592 183.771343 
L 139.814486 173.8001 
L 141.021381 160.747197 
L 142.228275 160.019524 
L 143.435169 124.311256 
L 144.642063 101.804253 
L 145.848957 168.218917 
L 147.055852 33.103423 
L 148.262746 123.522826 
L 149.46964 103.817718 
L 150.676534 76.635237 
L 151.883429 102.389217 
L 153.090323 104.753096 
L 154.297217 143.314125 
L 155.504111 98.983989 
L 156.711005 129.119551 
L 157.9179 95.328668 
L 159.124794 105.746405 
L 161.538582 89.375877 
L 162.745477 105.63902 
L 163.952371 53.173074 
L 165.159265 95.705927 
L 166.366159 101.523074 
L 167.573053 116.539989 
L 168.779948 92.259723 
L 169.986842 123.690968 
L 171.193736 124.243434 
L 172.40063 101.792949 
L 173.607525 83.595467 
L 174.814419 131.903078 
L 176.021313 110.738384 
L 177.228207 83.403304 
L 178.435101 97.941226 
L 179.641996 107.184796 
L 180.84889 114.76814 
L 182.055784 123.926932 
L 183.262678 73.422171 
L 184.469572 103.423502 
L 185.676467 106.043126 
L 186.883361 101.041256 
L 188.090255 84.944841 
L 189.297149 141.133931 
L 190.504044 90.377664 
L 191.710938 114.924978 
L 192.917832 94.129067 
L 194.124726 108.641555 
L 195.33162 105.985195 
L 196.538515 156.19606 
L 197.745409 91.348366 
L 198.952303 115.621566 
L 200.159197 105.654563 
L 201.366092 100.040882 
L 202.572986 112.002982 
L 203.77988 66.156743 
L 204.986774 110.174614 
L 206.193668 109.784638 
L 207.400563 130.053516 
L 208.607457 111.966245 
L 209.814351 102.321395 
L 211.021245 115.867421 
L 212.22814 101.925767 
L 213.435034 79.260512 
L 214.641928 194.422218 
L 215.848822 196.459703 
L 217.055716 223.048741 
L 218.262611 217.401149 
L 219.469505 193.573031 
L 220.676399 198.594682 
L 221.883293 192.743624 
L 223.090188 224.112699 
L 224.297082 198.194815 
L 225.503976 216.36969 
L 226.71087 225.114486 
L 227.917764 196.526112 
L 229.124659 201.59863 
L 230.331553 216.190245 
L 231.538447 217.897098 
L 232.745341 197.751146 
L 233.952236 203.287115 
L 235.15913 200.483807 
L 236.366024 194.371352 
L 237.572918 226.910355 
L 238.779812 200.707054 
L 239.986707 222.328133 
L 241.193601 199.154213 
L 242.400495 206.787011 
L 243.607389 222.872122 
L 244.814284 209.839 
L 246.021178 215.160198 
L 247.228072 204.496607 
L 248.434966 219.989688 
L 249.64186 222.832559 
L 250.848755 208.447236 
L 252.055649 198.714784 
L 253.262543 230.90196 
L 254.469437 197.235417 
L 255.676332 227.18023 
L 256.883226 222.24053 
L 258.09012 228.730244 
L 259.297014 199.891777 
L 260.503908 204.854085 
L 261.710803 192.992305 
L 262.917697 217.849057 
L 264.124591 195.610516 
L 265.331485 201.183221 
L 267.745274 197.252372 
L 268.952168 223.212645 
L 270.159062 208.115191 
L 271.365956 222.198141 
L 272.572851 216.830315 
L 273.779745 213.877233 
L 274.986639 202.125664 
L 276.193533 193.881055 
L 277.400428 130.491533 
L 278.607322 98.434349 
L 279.814216 135.251788 
L 281.02111 126.618616 
L 282.228004 119.539698 
L 283.434899 79.954275 
L 284.641793 116.757584 
L 285.848687 174.671895 
L 287.055581 171.998579 
L 288.262475 101.193855 
L 289.46937 152.211519 
L 290.676264 147.201171 
L 291.883158 119.296669 
L 293.090052 130.34176 
L 294.296947 101.96533 
L 295.503841 65.915127 
L 296.710735 151.212558 
L 297.917629 108.712203 
L 299.124523 149.603199 
L 300.331418 115.873073 
L 301.538312 122.899712 
L 302.745206 76.717189 
L 303.9521 113.536041 
L 305.158995 89.908562 
L 306.365889 126.884252 
L 307.572783 75.95843 
L 308.779677 133.28919 
L 309.986571 106.00215 
L 311.193466 125.338477 
L 312.40036 156.156497 
L 313.607254 101.191029 
L 314.814148 117.968489 
L 316.021043 52.333777 
L 317.227937 87.336979 
L 318.434831 114.821832 
L 319.641725 121.596964 
L 320.848619 138.877437 
L 322.055514 119.888699 
L 323.262408 132.858237 
L 324.469302 137.78946 
L 325.676196 140.900793 
L 326.883091 124.849593 
L 328.089985 34.507903 
L 329.296879 111.865925 
L 330.503773 146.200797 
L 331.710667 114.970193 
L 332.917562 125.465643 
L 334.124456 209.502716 
L 335.33135 201.340059 
L 336.538244 189.900753 
L 337.745139 203.390261 
L 338.952033 199.069436 
L 340.158927 183.682327 
L 341.365821 197.951786 
L 342.572715 191.674015 
L 343.77961 171.520999 
L 344.986504 208.245183 
L 346.193398 197.619741 
L 347.400292 189.231011 
L 348.607187 205.301993 
L 349.814081 191.737598 
L 351.020975 190.043462 
L 352.227869 201.55059 
L 353.434763 197.224113 
L 354.641658 198.529686 
L 355.848552 192.434187 
L 357.055446 182.161984 
L 358.26234 199.648749 
L 359.469235 197.467142 
L 360.676129 176.049529 
L 361.883023 202.969199 
L 363.089917 196.025925 
L 364.296811 191.375881 
L 365.503706 204.630838 
L 366.7106 193.565966 
L 369.124388 203.664375 
L 370.331283 183.525488 
L 371.538177 187.729037 
L 372.745071 195.938322 
L 373.951965 213.618662 
L 375.158859 212.106797 
L 376.365754 200.172956 
L 377.572648 206.4041 
L 378.779542 203.039847 
L 379.986436 209.57619 
L 381.193331 204.185756 
L 382.400225 202.484555 
L 383.607119 201.05888 
L 384.814013 195.17815 
L 386.020907 205.451766 
L 387.227802 186.184675 
L 388.434696 182.543483 
L 389.64159 188.589529 
L 390.848484 198.938031 
L 392.055379 194.368526 
L 393.262273 176.238865 
L 393.262273 176.238865 
" clip-path="url(#pcbc60a4fe3)" style="fill: none; stroke: #1f77b4; stroke-width: 1.5; stroke-linecap: square"/>
   </g>
   <g id="line2d_16">
    <path d="M 68.607727 112.615144 
L 69.814621 142.720062 
L 71.021516 164.124251 
L 72.22841 132.564512 
L 73.435304 134.036183 
L 74.642198 159.018731 
L 75.849093 153.72443 
L 77.055987 160.719741 
L 78.262881 133.094438 
L 79.469775 137.369782 
L 80.676669 107.821333 
L 81.883564 115.119409 
L 83.090458 146.434611 
L 84.297352 145.865342 
L 85.504246 103.835111 
L 86.711141 127.351021 
L 87.918035 139.557825 
L 89.124929 136.593749 
L 90.331823 152.522138 
L 91.538717 147.165272 
L 92.745612 100.486496 
L 93.952506 169.844928 
L 95.1594 137.649668 
L 96.366294 156.765722 
L 97.573189 136.499961 
L 98.780083 165.408443 
L 99.986977 171.146683 
L 101.193871 138.6825 
L 102.400765 185.041417 
L 103.60766 128.875602 
L 104.814554 169.81213 
L 106.021448 130.225321 
L 107.228342 139.132284 
L 108.435237 121.136438 
L 109.642131 133.40278 
L 110.849025 119.04442 
L 112.055919 162.771117 
L 113.262813 175.72205 
L 114.469708 128.823417 
L 115.676602 129.057984 
L 116.883496 155.467739 
L 119.297285 145.157806 
L 120.504179 176.881578 
L 121.711073 122.286453 
L 122.917967 123.554536 
L 124.124861 127.001155 
L 125.331756 115.047048 
L 126.53865 135.208241 
L 127.745544 181.345701 
L 128.952438 148.618351 
L 130.159333 129.15127 
L 131.366227 179.031569 
L 132.573121 160.739845 
L 133.780015 129.040692 
L 134.986909 123.197441 
L 136.193804 112.015733 
L 138.607592 144.927356 
L 139.814486 129.005163 
L 141.021381 148.097903 
L 142.228275 134.877048 
L 143.435169 147.826024 
L 144.642063 128.931778 
L 145.848957 139.063304 
L 147.055852 96.818068 
L 148.262746 101.732245 
L 149.46964 120.690866 
L 150.676534 112.402746 
L 151.883429 108.341693 
L 153.090323 119.276692 
L 154.297217 116.886619 
L 155.504111 115.296401 
L 156.711005 125.129255 
L 157.9179 111.805795 
L 159.124794 115.32716 
L 161.538582 106.776427 
L 162.745477 95.491629 
L 163.952371 95.157989 
L 165.159265 106.615467 
L 166.366159 116.908486 
L 167.573053 107.864688 
L 168.779948 105.901934 
L 169.986842 122.328216 
L 171.193736 111.788115 
L 173.607525 106.253146 
L 174.814419 116.503054 
L 176.021313 107.117422 
L 177.228207 111.366716 
L 178.435101 114.184814 
L 179.641996 134.036084 
L 180.84889 96.514469 
L 182.055784 114.575867 
L 183.262678 118.277365 
L 184.469572 111.46142 
L 185.676467 119.287153 
L 186.883361 110.869832 
L 188.090255 100.370435 
L 189.297149 124.69256 
L 190.504044 107.361603 
L 191.710938 100.032367 
L 192.917832 107.862355 
L 194.124726 106.996695 
L 195.33162 107.567515 
L 196.538515 122.604245 
L 197.745409 95.25487 
L 198.952303 115.274499 
L 200.159197 99.252695 
L 201.366092 109.877742 
L 203.77988 121.32009 
L 204.986774 111.521185 
L 206.193668 110.308036 
L 207.400563 114.900367 
L 208.607457 116.371242 
L 209.814351 125.763501 
L 211.021245 97.113118 
L 212.22814 98.094934 
L 213.435034 116.519859 
L 214.641928 190.391766 
L 215.848822 177.452997 
L 217.055716 222.416791 
L 218.262611 230.741 
L 219.469505 183.014379 
L 220.676399 202.400806 
L 221.883293 188.355002 
L 223.090188 212.66499 
L 224.297082 177.501323 
L 225.503976 230.878758 
L 226.71087 227.137657 
L 227.917764 185.402965 
L 229.124659 188.517528 
L 230.331553 230.736724 
L 231.538447 238.031494 
L 232.745341 189.722397 
L 233.952236 193.876876 
L 235.15913 190.229476 
L 236.366024 194.313926 
L 237.572918 233.658107 
L 238.779812 164.983885 
L 239.986707 240.347033 
L 241.193601 186.381238 
L 242.400495 231.690101 
L 243.607389 222.563447 
L 244.814284 201.88239 
L 246.021178 235.752956 
L 247.228072 184.534173 
L 248.434966 237.060367 
L 249.64186 230.806913 
L 250.848755 199.888252 
L 252.055649 186.428659 
L 253.262543 247.339841 
L 254.469437 185.247358 
L 255.676332 233.756437 
L 256.883226 214.988344 
L 258.09012 261.216 
L 259.297014 210.047218 
L 260.503908 188.229724 
L 261.710803 183.124325 
L 262.917697 231.031087 
L 264.124591 190.359435 
L 265.331485 190.229476 
L 266.53838 185.308935 
L 267.745274 189.767401 
L 268.952168 232.494527 
L 270.159062 209.689039 
L 271.365956 228.458901 
L 272.572851 231.048943 
L 273.779745 199.379431 
L 274.986639 189.315085 
L 276.193533 184.39167 
L 277.400428 144.364062 
L 278.607322 147.28174 
L 279.814216 148.860244 
L 281.02111 141.351979 
L 282.228004 124.537243 
L 283.434899 142.703864 
L 284.641793 141.631263 
L 285.848687 169.240701 
L 287.055581 155.563998 
L 288.262475 127.110298 
L 289.46937 154.477383 
L 290.676264 135.288689 
L 291.883158 155.94869 
L 293.090052 159.006263 
L 294.296947 124.773587 
L 295.503841 126.323887 
L 296.710735 173.891111 
L 297.917629 144.202329 
L 299.124523 168.504743 
L 300.331418 124.491186 
L 301.538312 147.122955 
L 302.745206 135.978166 
L 303.9521 141.68495 
L 305.158995 141.501243 
L 306.365889 152.556947 
L 307.572783 126.893271 
L 308.779677 123.240364 
L 309.986571 121.775232 
L 311.193466 135.377596 
L 312.40036 171.742668 
L 313.607254 127.237088 
L 314.814148 150.926071 
L 316.021043 152.774123 
L 317.227937 134.514836 
L 318.434831 121.865883 
L 319.641725 122.224605 
L 320.848619 172.099349 
L 322.055514 135.05134 
L 323.262408 137.439861 
L 324.469302 136.774982 
L 325.676196 150.899036 
L 326.883091 169.862653 
L 328.089985 128.305019 
L 329.296879 139.971238 
L 330.503773 139.5386 
L 331.710667 137.295013 
L 332.917562 120.729481 
L 334.124456 196.838964 
L 335.33135 197.987421 
L 336.538244 187.389743 
L 337.745139 193.073362 
L 338.952033 192.62 
L 340.158927 199.961383 
L 341.365821 202.980782 
L 342.572715 180.215309 
L 343.77961 195.974239 
L 344.986504 177.064358 
L 346.193398 197.800551 
L 347.400292 169.276738 
L 348.607187 191.154173 
L 349.814081 188.078519 
L 351.020975 200.590416 
L 352.227869 180.987702 
L 353.434763 174.419801 
L 354.641658 181.141401 
L 355.848552 169.788455 
L 357.055446 190.973172 
L 358.26234 190.923575 
L 359.469235 204.068168 
L 360.676129 199.899408 
L 361.883023 174.040579 
L 363.089917 193.862807 
L 364.296811 197.403295 
L 365.503706 172.462459 
L 366.7106 195.574994 
L 367.917494 189.618397 
L 369.124388 202.773093 
L 370.331283 199.646233 
L 371.538177 205.496133 
L 372.745071 195.574257 
L 373.951965 195.085938 
L 375.158859 147.966468 
L 376.365754 208.098203 
L 377.572648 186.752575 
L 378.779542 197.048183 
L 379.986436 201.698232 
L 381.193331 186.753039 
L 382.400225 199.653774 
L 383.607119 207.795324 
L 384.814013 185.14326 
L 386.020907 196.527443 
L 387.227802 191.052245 
L 388.434696 205.243393 
L 389.64159 196.265069 
L 390.848484 182.892439 
L 392.055379 178.40376 
L 393.262273 204.262775 
L 393.262273 204.262775 
" clip-path="url(#pcbc60a4fe3)" style="fill: none; stroke: #ff7f0e; stroke-width: 1.5; stroke-linecap: square"/>
   </g>
   <g id="patch_3">
    <path d="M 52.375 273.312 
L 52.375 7.2 
" style="fill: none; stroke: #000000; stroke-width: 0.8; stroke-linejoin: miter; stroke-linecap: square"/>
   </g>
   <g id="patch_4">
    <path d="M 409.495 273.312 
L 409.495 7.2 
" style="fill: none; stroke: #000000; stroke-width: 0.8; stroke-linejoin: miter; stroke-linecap: square"/>
   </g>
   <g id="patch_5">
    <path d="M 52.375 273.312 
L 409.495 273.312 
" style="fill: none; stroke: #000000; stroke-width: 0.8; stroke-linejoin: miter; stroke-linecap: square"/>
   </g>
   <g id="patch_6">
    <path d="M 52.375 7.2 
L 409.495 7.2 
" style="fill: none; stroke: #000000; stroke-width: 0.8; stroke-linejoin: miter; stroke-linecap: square"/>
   </g>
   <g id="legend_1">
    <g id="patch_7">
     <path d="M 335.562187 44.55625 
L 402.495 44.55625 
Q 404.495 44.55625 404.495 42.55625 
L 404.495 14.2 
Q 404.495 12.2 402.495 12.2 
L 335.562187 12.2 
Q 333.562187 12.2 333.562187 14.2 
L 333.562187 42.55625 
Q 333.562187 44.55625 335.562187 44.55625 
z
" style="fill: #ffffff; opacity: 0.8; stroke: #cccccc; stroke-linejoin: miter"/>
    </g>
    <g id="line2d_17">
     <path d="M 337.562187 20.298437 
L 347.562187 20.298437 
L 357.562187 20.298437 
" style="fill: none; stroke: #1f77b4; stroke-width: 1.5; stroke-linecap: square"/>
    </g>
    <g id="text_16">
     <!-- real -->
     <g transform="translate(365.562187 23.798437) scale(0.1 -0.1)">
      <defs>
       <path id="DejaVuSans-72" d="M 2631 2963 
Q 2534 3019 2420 3045 
Q 2306 3072 2169 3072 
Q 1681 3072 1420 2755 
Q 1159 2438 1159 1844 
L 1159 0 
L 581 0 
L 581 3500 
L 1159 3500 
L 1159 2956 
Q 1341 3275 1631 3429 
Q 1922 3584 2338 3584 
Q 2397 3584 2469 3576 
Q 2541 3569 2628 3553 
L 2631 2963 
z
" transform="scale(0.015625)"/>
       <path id="DejaVuSans-6c" d="M 603 4863 
L 1178 4863 
L 1178 0 
L 603 0 
L 603 4863 
z
" transform="scale(0.015625)"/>
      </defs>
      <use xlink:href="#DejaVuSans-72"/>
      <use xlink:href="#DejaVuSans-65" x="38.863281"/>
      <use xlink:href="#DejaVuSans-61" x="100.386719"/>
      <use xlink:href="#DejaVuSans-6c" x="161.666016"/>
     </g>
    </g>
    <g id="line2d_18">
     <path d="M 337.562187 34.976562 
L 347.562187 34.976562 
L 357.562187 34.976562 
" style="fill: none; stroke: #ff7f0e; stroke-width: 1.5; stroke-linecap: square"/>
    </g>
    <g id="text_17">
     <!-- predict -->
     <g transform="translate(365.562187 38.476562) scale(0.1 -0.1)">
      <defs>
       <path id="DejaVuSans-70" d="M 1159 525 
L 1159 -1331 
L 581 -1331 
L 581 3500 
L 1159 3500 
L 1159 2969 
Q 1341 3281 1617 3432 
Q 1894 3584 2278 3584 
Q 2916 3584 3314 3078 
Q 3713 2572 3713 1747 
Q 3713 922 3314 415 
Q 2916 -91 2278 -91 
Q 1894 -91 1617 61 
Q 1341 213 1159 525 
z
M 3116 1747 
Q 3116 2381 2855 2742 
Q 2594 3103 2138 3103 
Q 1681 3103 1420 2742 
Q 1159 2381 1159 1747 
Q 1159 1113 1420 752 
Q 1681 391 2138 391 
Q 2594 391 2855 752 
Q 3116 1113 3116 1747 
z
" transform="scale(0.015625)"/>
       <path id="DejaVuSans-69" d="M 603 3500 
L 1178 3500 
L 1178 0 
L 603 0 
L 603 3500 
z
M 603 4863 
L 1178 4863 
L 1178 4134 
L 603 4134 
L 603 4863 
z
" transform="scale(0.015625)"/>
       <path id="DejaVuSans-63" d="M 3122 3366 
L 3122 2828 
Q 2878 2963 2633 3030 
Q 2388 3097 2138 3097 
Q 1578 3097 1268 2742 
Q 959 2388 959 1747 
Q 959 1106 1268 751 
Q 1578 397 2138 397 
Q 2388 397 2633 464 
Q 2878 531 3122 666 
L 3122 134 
Q 2881 22 2623 -34 
Q 2366 -91 2075 -91 
Q 1284 -91 818 406 
Q 353 903 353 1747 
Q 353 2603 823 3093 
Q 1294 3584 2113 3584 
Q 2378 3584 2631 3529 
Q 2884 3475 3122 3366 
z
" transform="scale(0.015625)"/>
       <path id="DejaVuSans-74" d="M 1172 4494 
L 1172 3500 
L 2356 3500 
L 2356 3053 
L 1172 3053 
L 1172 1153 
Q 1172 725 1289 603 
Q 1406 481 1766 481 
L 2356 481 
L 2356 0 
L 1766 0 
Q 1100 0 847 248 
Q 594 497 594 1153 
L 594 3053 
L 172 3053 
L 172 3500 
L 594 3500 
L 594 4494 
L 1172 4494 
z
" transform="scale(0.015625)"/>
      </defs>
      <use xlink:href="#DejaVuSans-70"/>
      <use xlink:href="#DejaVuSans-72" x="63.476562"/>
      <use xlink:href="#DejaVuSans-65" x="102.339844"/>
      <use xlink:href="#DejaVuSans-64" x="163.863281"/>
      <use xlink:href="#DejaVuSans-69" x="227.339844"/>
      <use xlink:href="#DejaVuSans-63" x="255.123047"/>
      <use xlink:href="#DejaVuSans-74" x="310.103516"/>
     </g>
    </g>
   </g>
  </g>
 </g>
 <defs>
  <clipPath id="pcbc60a4fe3">
   <rect x="52.375" y="7.2" width="357.12" height="266.112"/>
  </clipPath>
 </defs>
</svg>
