<?xml version="1.0" encoding="utf-8" standalone="no"?>
<!DOCTYPE svg PUBLIC "-//W3C//DTD SVG 1.1//EN"
  "http://www.w3.org/Graphics/SVG/1.1/DTD/svg11.dtd">
<svg xmlns:xlink="http://www.w3.org/1999/xlink" width="408.52pt" height="308.972937pt" viewBox="0 0 408.52 308.972937" xmlns="http://www.w3.org/2000/svg" version="1.1">
 <metadata>
  <rdf:RDF xmlns:dc="http://purl.org/dc/elements/1.1/" xmlns:cc="http://creativecommons.org/ns#" xmlns:rdf="http://www.w3.org/1999/02/22-rdf-syntax-ns#">
   <cc:Work>
    <dc:type rdf:resource="http://purl.org/dc/dcmitype/StillImage"/>
    <dc:date>2023-01-05T20:10:35.479022</dc:date>
    <dc:format>image/svg+xml</dc:format>
    <dc:creator>
     <cc:Agent>
      <dc:title>Matplotlib v3.6.2, https://matplotlib.org/</dc:title>
     </cc:Agent>
    </dc:creator>
   </cc:Work>
  </rdf:RDF>
 </metadata>
 <defs>
  <style type="text/css">*{stroke-linejoin: round; stroke-linecap: butt}</style>
 </defs>
 <g id="figure_1">
  <g id="patch_1">
   <path d="M 0 308.972937 
L 408.52 308.972937 
L 408.52 0 
L 0 0 
z
" style="fill: #ffffff"/>
  </g>
  <g id="axes_1">
   <g id="patch_2">
    <path d="M 44.2 273.312 
L 401.32 273.312 
L 401.32 7.2 
L 44.2 7.2 
z
" style="fill: #ffffff"/>
   </g>
   <g id="matplotlib.axis_1">
    <g id="xtick_1">
     <g id="line2d_1">
      <defs>
       <path id="ma1a13e1c09" d="M 0 0 
L 0 3.5 
" style="stroke: #000000; stroke-width: 0.8"/>
      </defs>
      <g>
       <use xlink:href="#ma1a13e1c09" x="60.432727" y="273.312" style="stroke: #000000; stroke-width: 0.8"/>
      </g>
     </g>
     <g id="text_1">
      <!-- 0 -->
      <g transform="translate(57.932727 287.187) scale(0.1 -0.1)">
       <defs>
        <path id="SimHei-30" d="M 225 2537 
Q 250 3200 412 3587 
Q 575 3975 875 4225 
Q 1175 4475 1612 4475 
Q 2050 4475 2375 4112 
Q 2700 3750 2800 3200 
Q 2900 2650 2862 1937 
Q 2825 1225 2612 775 
Q 2400 325 1975 150 
Q 1550 -25 1125 187 
Q 700 400 525 750 
Q 350 1100 275 1487 
Q 200 1875 225 2537 
z
M 750 2687 
Q 675 2000 800 1462 
Q 925 925 1212 700 
Q 1500 475 1800 612 
Q 2100 750 2237 1162 
Q 2375 1575 2375 2062 
Q 2375 2550 2337 2950 
Q 2300 3350 2112 3675 
Q 1925 4000 1612 4012 
Q 1300 4025 1062 3700 
Q 825 3375 750 2687 
z
" transform="scale(0.015625)"/>
       </defs>
       <use xlink:href="#SimHei-30"/>
      </g>
     </g>
    </g>
    <g id="xtick_2">
     <g id="line2d_2">
      <g>
       <use xlink:href="#ma1a13e1c09" x="120.777438" y="273.312" style="stroke: #000000; stroke-width: 0.8"/>
      </g>
     </g>
     <g id="text_2">
      <!-- 50 -->
      <g transform="translate(115.777438 287.187) scale(0.1 -0.1)">
       <defs>
        <path id="SimHei-35" d="M 550 1325 
Q 725 650 1150 575 
Q 1575 500 1837 662 
Q 2100 825 2212 1087 
Q 2325 1350 2312 1675 
Q 2300 2000 2137 2225 
Q 1975 2450 1725 2525 
Q 1475 2600 1162 2525 
Q 850 2450 650 2175 
L 225 2225 
Q 275 2375 700 4375 
L 2675 4375 
L 2675 3925 
L 1075 3925 
Q 950 3250 825 2850 
Q 1200 3025 1525 3012 
Q 1850 3000 2150 2862 
Q 2450 2725 2587 2487 
Q 2725 2250 2787 2012 
Q 2850 1775 2837 1500 
Q 2825 1225 2725 937 
Q 2625 650 2425 462 
Q 2225 275 1937 162 
Q 1650 50 1275 75 
Q 900 100 562 350 
Q 225 600 100 1200 
L 550 1325 
z
" transform="scale(0.015625)"/>
       </defs>
       <use xlink:href="#SimHei-35"/>
       <use xlink:href="#SimHei-30" x="50"/>
      </g>
     </g>
    </g>
    <g id="xtick_3">
     <g id="line2d_3">
      <g>
       <use xlink:href="#ma1a13e1c09" x="181.122149" y="273.312" style="stroke: #000000; stroke-width: 0.8"/>
      </g>
     </g>
     <g id="text_3">
      <!-- 100 -->
      <g transform="translate(173.622149 287.187) scale(0.1 -0.1)">
       <defs>
        <path id="SimHei-31" d="M 1400 3600 
Q 1075 3275 575 2975 
L 575 3450 
Q 1200 3875 1600 4450 
L 1900 4450 
L 1900 150 
L 1400 150 
L 1400 3600 
z
" transform="scale(0.015625)"/>
       </defs>
       <use xlink:href="#SimHei-31"/>
       <use xlink:href="#SimHei-30" x="50"/>
       <use xlink:href="#SimHei-30" x="100"/>
      </g>
     </g>
    </g>
    <g id="xtick_4">
     <g id="line2d_4">
      <g>
       <use xlink:href="#ma1a13e1c09" x="241.46686" y="273.312" style="stroke: #000000; stroke-width: 0.8"/>
      </g>
     </g>
     <g id="text_4">
      <!-- 150 -->
      <g transform="translate(233.96686 287.187) scale(0.1 -0.1)">
       <use xlink:href="#SimHei-31"/>
       <use xlink:href="#SimHei-35" x="50"/>
       <use xlink:href="#SimHei-30" x="100"/>
      </g>
     </g>
    </g>
    <g id="xtick_5">
     <g id="line2d_5">
      <g>
       <use xlink:href="#ma1a13e1c09" x="301.811571" y="273.312" style="stroke: #000000; stroke-width: 0.8"/>
      </g>
     </g>
     <g id="text_5">
      <!-- 200 -->
      <g transform="translate(294.311571 287.187) scale(0.1 -0.1)">
       <defs>
        <path id="SimHei-32" d="M 300 250 
Q 325 625 650 925 
Q 975 1225 1475 1862 
Q 1975 2500 2125 2850 
Q 2275 3200 2237 3450 
Q 2200 3700 2000 3862 
Q 1800 4025 1537 4000 
Q 1275 3975 1037 3800 
Q 800 3625 675 3275 
L 200 3350 
Q 400 3925 712 4187 
Q 1025 4450 1450 4475 
Q 1700 4500 1900 4462 
Q 2100 4425 2312 4287 
Q 2525 4150 2662 3875 
Q 2800 3600 2762 3212 
Q 2725 2825 2375 2287 
Q 2025 1750 1025 600 
L 2825 600 
L 2825 150 
L 300 150 
L 300 250 
z
" transform="scale(0.015625)"/>
       </defs>
       <use xlink:href="#SimHei-32"/>
       <use xlink:href="#SimHei-30" x="50"/>
       <use xlink:href="#SimHei-30" x="100"/>
      </g>
     </g>
    </g>
    <g id="xtick_6">
     <g id="line2d_6">
      <g>
       <use xlink:href="#ma1a13e1c09" x="362.156283" y="273.312" style="stroke: #000000; stroke-width: 0.8"/>
      </g>
     </g>
     <g id="text_6">
      <!-- 250 -->
      <g transform="translate(354.656283 287.187) scale(0.1 -0.1)">
       <use xlink:href="#SimHei-32"/>
       <use xlink:href="#SimHei-35" x="50"/>
       <use xlink:href="#SimHei-30" x="100"/>
      </g>
     </g>
    </g>
    <g id="text_7">
     <!-- 比较预测数据与实际数据 -->
     <g transform="translate(167.76 300.522937) scale(0.1 -0.1)">
      <defs>
       <path id="SimHei-6bd4" d="M 3775 5100 
Q 3750 4575 3750 4100 
L 3750 3050 
Q 4925 3600 5475 4175 
Q 5675 3900 5900 3675 
Q 5600 3500 5037 3187 
Q 4475 2875 3750 2550 
L 3750 450 
Q 3750 100 4050 100 
L 5000 100 
Q 5175 100 5262 250 
Q 5350 400 5450 900 
Q 5650 775 6025 675 
Q 5850 0 5650 -175 
Q 5450 -350 5225 -350 
L 3900 -350 
Q 3250 -350 3250 275 
L 3250 4000 
Q 3250 4550 3225 5100 
L 3775 5100 
z
M 1275 4975 
Q 1250 4575 1250 4000 
L 1250 3150 
L 1850 3150 
Q 2325 3150 2875 3175 
L 2875 2650 
Q 2325 2675 1850 2675 
L 1250 2675 
L 1250 475 
Q 1650 650 1962 812 
Q 2275 975 2850 1275 
Q 2900 950 2950 750 
Q 2375 475 1762 175 
Q 1150 -125 925 -325 
Q 750 -100 575 200 
Q 700 300 750 600 
L 750 3950 
Q 750 4550 725 4975 
L 1275 4975 
z
" transform="scale(0.015625)"/>
       <path id="SimHei-8f83" d="M 2950 1425 
Q 2925 1225 2925 1000 
Q 2725 975 2025 850 
Q 2025 225 2050 -625 
L 1525 -625 
Q 1550 225 1550 750 
Q 875 600 425 450 
Q 350 750 200 1000 
Q 625 1050 1550 1175 
L 1550 2100 
Q 1250 2100 937 2087 
Q 625 2075 425 2000 
L 275 2450 
Q 500 2675 662 3075 
Q 825 3475 950 3950 
Q 775 3950 350 3925 
L 350 4400 
Q 725 4350 1050 4350 
Q 1225 4800 1275 5250 
Q 1550 5150 1850 5075 
Q 1725 4775 1575 4350 
Q 2200 4350 2650 4375 
L 2650 3925 
Q 2200 3950 1450 3950 
Q 1300 3475 900 2500 
L 1550 2500 
Q 1550 3100 1525 3400 
L 2050 3400 
Q 2025 3050 2025 2500 
L 2675 2500 
L 2675 2100 
L 2025 2100 
L 2025 1250 
Q 2700 1375 2950 1425 
z
M 5450 2325 
Q 5300 1925 5100 1437 
Q 4900 950 4675 575 
Q 4900 375 5300 225 
Q 5700 75 6200 -25 
Q 6000 -275 5950 -575 
Q 5300 -375 4925 -162 
Q 4550 50 4325 250 
Q 4025 -25 3687 -212 
Q 3350 -400 2825 -625 
Q 2725 -375 2450 -125 
Q 3025 0 3425 212 
Q 3825 425 4025 625 
Q 3800 1000 3650 1425 
L 3350 2275 
Q 3550 2375 3850 2475 
Q 4000 1875 4100 1600 
Q 4200 1325 4350 1025 
Q 4525 1275 4650 1662 
Q 4775 2050 4850 2525 
Q 5125 2425 5450 2325 
z
M 5175 4400 
Q 5725 4425 6025 4425 
L 6025 3975 
Q 5725 4000 5200 4000 
L 3800 4000 
Q 3250 4000 2925 3975 
L 2925 4425 
Q 3350 4400 3800 4400 
L 5175 4400 
z
M 4150 3425 
Q 3875 3100 3175 2275 
Q 3025 2475 2775 2625 
Q 3425 3300 3675 3750 
Q 3875 3600 4150 3425 
z
M 5200 3750 
Q 5450 3500 6125 2750 
Q 5825 2550 5650 2400 
Q 5425 2775 4775 3425 
Q 4975 3600 5200 3750 
z
M 4275 5300 
Q 4625 4925 4775 4675 
Q 4525 4550 4300 4425 
Q 4225 4625 3850 5050 
Q 4075 5175 4275 5300 
z
" transform="scale(0.015625)"/>
       <path id="SimHei-9884" d="M 5200 4800 
Q 5575 4800 5950 4825 
L 5950 4400 
Q 5575 4425 5200 4425 
L 4500 4425 
Q 4425 4050 4350 3600 
L 5725 3600 
Q 5700 3225 5700 2800 
L 5700 1725 
Q 5700 1300 5725 850 
L 5250 850 
L 5250 3225 
L 3550 3225 
L 3550 800 
L 3075 800 
Q 3100 1375 3100 1725 
L 3100 2775 
Q 3100 3175 3075 3600 
L 3900 3600 
Q 4000 4150 4000 4425 
L 3725 4425 
Q 3300 4425 2850 4400 
L 2850 4825 
Q 3325 4800 3725 4800 
L 5200 4800 
z
M 2600 1775 
Q 2350 1825 2150 1825 
Q 2250 2250 2300 2450 
L 1750 2450 
L 1750 125 
Q 1725 -300 1425 -400 
Q 1125 -500 750 -500 
Q 700 -225 575 25 
Q 1125 -25 1212 37 
Q 1300 100 1300 350 
L 1300 2450 
L 1025 2450 
Q 700 2450 350 2425 
L 350 2850 
Q 700 2825 1000 2825 
L 2850 2825 
Q 2725 2325 2600 1775 
z
M 4725 2875 
Q 4625 2575 4600 2100 
Q 4575 1625 4462 1037 
Q 4350 450 3962 62 
Q 3575 -325 2925 -675 
Q 2700 -500 2475 -350 
Q 3075 -125 3437 200 
Q 3800 525 3950 937 
Q 4100 1350 4137 1850 
Q 4175 2350 4175 2925 
L 4725 2875 
z
M 1625 2900 
Q 1275 3275 800 3650 
Q 925 3775 1075 3950 
Q 1250 3825 1425 3675 
Q 1750 4150 1950 4375 
L 1400 4375 
Q 900 4375 450 4350 
L 450 4775 
Q 900 4750 1375 4750 
L 2575 4750 
L 2575 4375 
Q 2200 4100 1725 3400 
L 1950 3200 
Q 1750 3025 1625 2900 
z
M 4775 725 
Q 5725 0 6075 -325 
Q 5850 -500 5725 -650 
Q 5400 -325 5137 -87 
Q 4875 150 4525 350 
Q 4650 525 4775 725 
z
" transform="scale(0.015625)"/>
       <path id="SimHei-6d4b" d="M 4025 4725 
Q 4000 4475 4000 4000 
L 4000 2225 
Q 4000 1775 4025 1350 
L 3550 1350 
L 3550 4325 
L 2350 4325 
L 2350 1325 
L 1900 1325 
Q 1925 1775 1925 2225 
L 1925 4000 
Q 1925 4200 1900 4725 
L 4025 4725 
z
M 5900 5075 
Q 5875 4800 5875 4375 
L 5875 0 
Q 5875 -325 5650 -425 
Q 5425 -525 4975 -600 
Q 4925 -325 4775 -50 
Q 5125 -50 5262 -25 
Q 5400 0 5400 250 
L 5400 4375 
Q 5400 4775 5375 5075 
L 5900 5075 
z
M 3275 3725 
Q 3225 3400 3200 2325 
Q 3175 1250 2837 550 
Q 2500 -150 2075 -600 
Q 1850 -400 1600 -325 
Q 2200 250 2475 962 
Q 2750 1675 2762 2475 
Q 2775 3275 2725 3800 
Q 3000 3750 3275 3725 
z
M 4950 4275 
Q 4925 4000 4925 3575 
L 4925 1825 
Q 4925 1300 4950 850 
L 4450 850 
Q 4475 1150 4475 1825 
L 4475 3575 
Q 4475 4000 4450 4275 
L 4950 4275 
z
M 1700 1675 
Q 1375 1075 1112 487 
Q 850 -100 725 -400 
Q 500 -200 200 -25 
Q 475 300 762 850 
Q 1050 1400 1250 2000 
Q 1475 1825 1700 1675 
z
M 3400 1050 
Q 3800 650 4300 -125 
Q 4100 -225 3875 -450 
Q 3475 275 3025 750 
Q 3225 875 3400 1050 
z
M 600 3525 
Q 1125 3125 1500 2775 
Q 1300 2575 1150 2375 
Q 825 2775 300 3150 
Q 450 3300 600 3525 
z
M 1350 4000 
Q 950 4375 475 4675 
Q 625 4850 775 5050 
Q 1300 4700 1675 4375 
Q 1500 4250 1350 4000 
z
" transform="scale(0.015625)"/>
       <path id="SimHei-6570" d="M 4525 4925 
Q 4475 4800 4400 4587 
Q 4325 4375 4175 3825 
L 5325 3825 
Q 5575 3825 5925 3850 
L 5925 3400 
Q 5650 3425 5500 3425 
Q 5500 3025 5362 2162 
Q 5225 1300 4875 675 
Q 5125 375 5437 137 
Q 5750 -100 6025 -200 
Q 5725 -425 5625 -625 
Q 5325 -450 5075 -225 
Q 4825 0 4575 325 
Q 4300 25 3987 -187 
Q 3675 -400 3200 -650 
Q 3075 -425 2850 -300 
Q 3225 -150 3650 125 
Q 4075 400 4300 675 
Q 4125 1025 3962 1425 
Q 3800 1825 3675 2475 
Q 3600 2275 3425 1950 
Q 3250 2050 3000 2150 
Q 3400 2850 3650 3675 
Q 3900 4500 3975 5100 
Q 4275 4975 4525 4925 
z
M 2100 2250 
Q 2000 2150 1875 1925 
L 3250 1925 
Q 3100 1300 2725 675 
Q 3125 525 3350 400 
Q 3225 225 3125 25 
Q 2900 175 2450 325 
Q 1950 -225 725 -650 
Q 600 -375 400 -275 
Q 1575 0 2000 475 
Q 1300 650 850 775 
Q 1000 1000 1250 1525 
Q 1000 1525 425 1500 
L 425 1950 
Q 900 1925 1400 1925 
Q 1500 2150 1550 2425 
Q 1825 2325 2100 2250 
z
M 1775 3950 
Q 1775 4550 1750 5100 
L 2250 5100 
Q 2225 4575 2225 3950 
Q 3075 3950 3425 3975 
L 3425 3525 
Q 3075 3550 2225 3550 
Q 2225 2825 2250 2425 
L 1750 2425 
Q 1775 2775 1775 3300 
Q 1650 3100 1300 2787 
Q 950 2475 650 2300 
Q 525 2525 275 2625 
Q 500 2700 875 2975 
Q 1250 3250 1450 3550 
Q 950 3550 500 3525 
L 500 3975 
Q 925 3950 1775 3950 
z
M 3975 3175 
Q 4200 1700 4600 1125 
Q 4850 1700 4937 2287 
Q 5025 2875 5050 3425 
L 4075 3425 
L 3975 3175 
z
M 1450 1000 
Q 1750 925 2275 800 
Q 2475 1050 2650 1525 
L 1725 1525 
Q 1600 1275 1450 1000 
z
M 3325 4825 
Q 3200 4625 3125 4450 
Q 3050 4275 2925 4025 
Q 2725 4125 2525 4175 
Q 2725 4500 2900 5000 
Q 3150 4875 3325 4825 
z
M 2575 3375 
Q 2900 3050 3200 2725 
Q 3050 2600 2875 2425 
Q 2525 2850 2300 3100 
Q 2450 3225 2575 3375 
z
M 925 5000 
Q 1275 4650 1500 4300 
L 1125 4075 
Q 950 4425 600 4725 
Q 825 4875 925 5000 
z
" transform="scale(0.015625)"/>
       <path id="SimHei-636e" d="M 5750 4775 
Q 5725 4550 5725 4225 
L 5725 3900 
Q 5725 3450 5750 3250 
L 3100 3250 
L 3100 2500 
L 4250 2500 
Q 4250 2725 4225 3175 
L 4700 3175 
Q 4675 2775 4675 2500 
L 5350 2500 
Q 5800 2500 6100 2525 
L 6100 2075 
Q 5800 2100 5375 2100 
L 4675 2100 
L 4675 1425 
L 5775 1425 
Q 5750 950 5750 800 
L 5750 175 
Q 5750 -225 5775 -575 
L 5325 -575 
L 5325 -225 
L 3675 -225 
L 3675 -600 
L 3225 -600 
Q 3250 -325 3250 100 
L 3250 825 
Q 3250 1075 3225 1425 
L 4250 1425 
L 4250 2100 
L 3075 2100 
Q 3050 1375 2887 737 
Q 2725 100 2425 -475 
Q 2200 -325 1950 -250 
Q 2250 150 2387 600 
Q 2525 1050 2600 1562 
Q 2675 2075 2675 2625 
L 2675 3575 
Q 2675 3975 2650 4775 
L 5750 4775 
z
M 1275 4425 
Q 1275 4775 1250 5075 
L 1750 5075 
Q 1725 4800 1725 4425 
L 1725 3775 
Q 1975 3775 2500 3800 
L 2500 3375 
Q 1975 3400 1725 3400 
L 1725 2450 
Q 2050 2625 2400 2850 
Q 2425 2650 2525 2475 
Q 2050 2200 1725 2000 
L 1725 175 
Q 1725 -300 1487 -400 
Q 1250 -500 775 -575 
Q 725 -325 600 -50 
Q 1025 -50 1150 -12 
Q 1275 25 1275 325 
L 1275 1800 
Q 900 1600 525 1325 
Q 450 1525 275 1800 
Q 775 1975 1275 2250 
L 1275 3400 
Q 800 3400 350 3375 
L 350 3800 
Q 800 3775 1275 3775 
L 1275 4425 
z
M 5300 3625 
L 5300 4400 
L 3100 4400 
L 3100 3625 
L 5300 3625 
z
M 5325 150 
L 5325 1075 
L 3675 1075 
L 3675 150 
L 5325 150 
z
" transform="scale(0.015625)"/>
       <path id="SimHei-4e0e" d="M 5350 100 
Q 5275 -300 4925 -425 
Q 4575 -550 3900 -600 
Q 3875 -375 3650 -25 
Q 4375 -50 4575 0 
Q 4775 50 4837 225 
Q 4900 400 5100 2350 
L 1125 2350 
Q 1450 4350 1475 5200 
Q 1800 5150 2075 5125 
Q 1975 4825 1900 4275 
L 4900 4275 
Q 5400 4275 5800 4300 
L 5800 3825 
Q 5400 3850 4950 3850 
L 1850 3850 
L 1700 2750 
L 5675 2750 
Q 5625 2450 5575 2050 
L 5350 100 
z
M 3675 1350 
Q 4125 1350 4500 1375 
L 4500 875 
Q 4125 900 3850 900 
L 1450 900 
Q 1000 900 500 875 
L 500 1375 
Q 1000 1350 1450 1350 
L 3675 1350 
z
" transform="scale(0.015625)"/>
       <path id="SimHei-5b9e" d="M 4125 3500 
Q 4050 3200 4000 2675 
Q 3950 2150 3850 1550 
L 5025 1550 
Q 5475 1550 5975 1575 
L 5975 1100 
Q 5450 1125 5000 1125 
L 3725 1125 
Q 3500 625 3050 250 
Q 2600 -125 2000 -337 
Q 1400 -550 925 -675 
Q 825 -375 500 -200 
Q 1225 -125 2050 212 
Q 2875 550 3200 1125 
L 1425 1125 
Q 975 1125 425 1100 
L 425 1575 
Q 1000 1550 1425 1550 
L 3375 1550 
Q 3450 1975 3487 2462 
Q 3525 2950 3500 3650 
Q 3800 3550 4125 3500 
z
M 3250 5250 
Q 3450 4850 3600 4375 
L 5775 4375 
Q 5750 4100 5750 3825 
Q 5750 3575 5775 3275 
L 5200 3275 
L 5200 3975 
L 1225 3975 
L 1225 3225 
L 675 3225 
Q 700 3525 700 3800 
Q 700 4100 675 4375 
L 2975 4375 
Q 2900 4675 2700 5075 
Q 2900 5150 3250 5250 
z
M 4000 825 
Q 4550 525 5050 262 
Q 5550 0 5925 -225 
Q 5750 -425 5550 -650 
Q 5100 -325 4575 -37 
Q 4050 250 3675 400 
Q 3875 650 4000 825 
z
M 1175 2750 
Q 1600 2550 2350 2050 
Q 2250 1900 2050 1650 
Q 1350 2175 925 2350 
Q 1075 2500 1175 2750 
z
M 3150 2825 
Q 2975 2625 2850 2425 
Q 2050 3000 1675 3125 
Q 1800 3300 1950 3525 
L 3150 2825 
z
" transform="scale(0.015625)"/>
       <path id="SimHei-9645" d="M 2500 4900 
Q 2425 4700 2250 4100 
Q 2075 3500 1875 2900 
Q 2200 2400 2312 2050 
Q 2425 1700 2362 1412 
Q 2300 1125 2012 912 
Q 1725 700 1350 650 
Q 1225 1050 1125 1225 
Q 1675 1225 1787 1412 
Q 1900 1600 1837 1862 
Q 1775 2125 1662 2375 
Q 1550 2625 1350 2875 
Q 1475 3225 1600 3650 
Q 1725 4075 1850 4475 
L 1025 4475 
L 1025 -525 
L 500 -525 
Q 525 175 525 850 
L 525 3825 
Q 525 4375 500 4900 
L 2500 4900 
z
M 5250 3300 
Q 5650 3300 6050 3325 
L 6050 2850 
Q 5725 2875 5325 2875 
L 4500 2875 
L 4500 75 
Q 4500 -325 4225 -387 
Q 3950 -450 3475 -525 
Q 3450 -225 3275 75 
Q 3775 75 3887 100 
Q 4000 125 4000 275 
L 4000 2875 
L 3375 2875 
Q 2825 2875 2475 2850 
L 2475 3325 
Q 3025 3300 3375 3300 
L 5250 3300 
z
M 4975 4775 
Q 5375 4775 5675 4825 
L 5675 4350 
Q 5375 4375 4975 4375 
L 3650 4375 
Q 3225 4375 2900 4350 
L 2900 4825 
Q 3200 4775 3700 4775 
L 4975 4775 
z
M 2150 200 
Q 2450 700 2662 1187 
Q 2875 1675 3050 2175 
Q 3250 2100 3575 1950 
Q 3325 1500 3112 1000 
Q 2900 500 2650 -25 
Q 2450 75 2150 200 
z
M 5275 2200 
Q 5900 975 6200 350 
Q 5950 250 5675 100 
Q 5300 1025 4800 1925 
Q 4950 2000 5275 2200 
z
" transform="scale(0.015625)"/>
      </defs>
      <use xlink:href="#SimHei-6bd4"/>
      <use xlink:href="#SimHei-8f83" x="100"/>
      <use xlink:href="#SimHei-9884" x="200"/>
      <use xlink:href="#SimHei-6d4b" x="300"/>
      <use xlink:href="#SimHei-6570" x="400"/>
      <use xlink:href="#SimHei-636e" x="500"/>
      <use xlink:href="#SimHei-4e0e" x="600"/>
      <use xlink:href="#SimHei-5b9e" x="700"/>
      <use xlink:href="#SimHei-9645" x="800"/>
      <use xlink:href="#SimHei-6570" x="900"/>
      <use xlink:href="#SimHei-636e" x="1000"/>
     </g>
    </g>
   </g>
   <g id="matplotlib.axis_2">
    <g id="ytick_1">
     <g id="line2d_7">
      <defs>
       <path id="mfa6b0cc28c" d="M 0 0 
L -3.5 0 
" style="stroke: #000000; stroke-width: 0.8"/>
      </defs>
      <g>
       <use xlink:href="#mfa6b0cc28c" x="44.2" y="260.465275" style="stroke: #000000; stroke-width: 0.8"/>
      </g>
     </g>
     <g id="text_8">
      <!-- 0 -->
      <g transform="translate(32.2 263.902775) scale(0.1 -0.1)">
       <use xlink:href="#SimHei-30"/>
      </g>
     </g>
    </g>
    <g id="ytick_2">
     <g id="line2d_8">
      <g>
       <use xlink:href="#mfa6b0cc28c" x="44.2" y="225.141332" style="stroke: #000000; stroke-width: 0.8"/>
      </g>
     </g>
     <g id="text_9">
      <!-- 25000 -->
      <g transform="translate(12.2 228.578832) scale(0.1 -0.1)">
       <use xlink:href="#SimHei-32"/>
       <use xlink:href="#SimHei-35" x="50"/>
       <use xlink:href="#SimHei-30" x="100"/>
       <use xlink:href="#SimHei-30" x="150"/>
       <use xlink:href="#SimHei-30" x="200"/>
      </g>
     </g>
    </g>
    <g id="ytick_3">
     <g id="line2d_9">
      <g>
       <use xlink:href="#mfa6b0cc28c" x="44.2" y="189.817389" style="stroke: #000000; stroke-width: 0.8"/>
      </g>
     </g>
     <g id="text_10">
      <!-- 50000 -->
      <g transform="translate(12.2 193.254889) scale(0.1 -0.1)">
       <use xlink:href="#SimHei-35"/>
       <use xlink:href="#SimHei-30" x="50"/>
       <use xlink:href="#SimHei-30" x="100"/>
       <use xlink:href="#SimHei-30" x="150"/>
       <use xlink:href="#SimHei-30" x="200"/>
      </g>
     </g>
    </g>
    <g id="ytick_4">
     <g id="line2d_10">
      <g>
       <use xlink:href="#mfa6b0cc28c" x="44.2" y="154.493446" style="stroke: #000000; stroke-width: 0.8"/>
      </g>
     </g>
     <g id="text_11">
      <!-- 75000 -->
      <g transform="translate(12.2 157.930946) scale(0.1 -0.1)">
       <defs>
        <path id="SimHei-37" d="M 850 150 
Q 1300 2050 2425 3925 
L 275 3925 
L 275 4375 
L 2950 4375 
L 2950 3950 
Q 1775 2050 1400 150 
L 850 150 
z
" transform="scale(0.015625)"/>
       </defs>
       <use xlink:href="#SimHei-37"/>
       <use xlink:href="#SimHei-35" x="50"/>
       <use xlink:href="#SimHei-30" x="100"/>
       <use xlink:href="#SimHei-30" x="150"/>
       <use xlink:href="#SimHei-30" x="200"/>
      </g>
     </g>
    </g>
    <g id="ytick_5">
     <g id="line2d_11">
      <g>
       <use xlink:href="#mfa6b0cc28c" x="44.2" y="119.169503" style="stroke: #000000; stroke-width: 0.8"/>
      </g>
     </g>
     <g id="text_12">
      <!-- 100000 -->
      <g transform="translate(7.2 122.607003) scale(0.1 -0.1)">
       <use xlink:href="#SimHei-31"/>
       <use xlink:href="#SimHei-30" x="50"/>
       <use xlink:href="#SimHei-30" x="100"/>
       <use xlink:href="#SimHei-30" x="150"/>
       <use xlink:href="#SimHei-30" x="200"/>
       <use xlink:href="#SimHei-30" x="250"/>
      </g>
     </g>
    </g>
    <g id="ytick_6">
     <g id="line2d_12">
      <g>
       <use xlink:href="#mfa6b0cc28c" x="44.2" y="83.84556" style="stroke: #000000; stroke-width: 0.8"/>
      </g>
     </g>
     <g id="text_13">
      <!-- 125000 -->
      <g transform="translate(7.2 87.28306) scale(0.1 -0.1)">
       <use xlink:href="#SimHei-31"/>
       <use xlink:href="#SimHei-32" x="50"/>
       <use xlink:href="#SimHei-35" x="100"/>
       <use xlink:href="#SimHei-30" x="150"/>
       <use xlink:href="#SimHei-30" x="200"/>
       <use xlink:href="#SimHei-30" x="250"/>
      </g>
     </g>
    </g>
    <g id="ytick_7">
     <g id="line2d_13">
      <g>
       <use xlink:href="#mfa6b0cc28c" x="44.2" y="48.521617" style="stroke: #000000; stroke-width: 0.8"/>
      </g>
     </g>
     <g id="text_14">
      <!-- 150000 -->
      <g transform="translate(7.2 51.959117) scale(0.1 -0.1)">
       <use xlink:href="#SimHei-31"/>
       <use xlink:href="#SimHei-35" x="50"/>
       <use xlink:href="#SimHei-30" x="100"/>
       <use xlink:href="#SimHei-30" x="150"/>
       <use xlink:href="#SimHei-30" x="200"/>
       <use xlink:href="#SimHei-30" x="250"/>
      </g>
     </g>
    </g>
    <g id="ytick_8">
     <g id="line2d_14">
      <g>
       <use xlink:href="#mfa6b0cc28c" x="44.2" y="13.197675" style="stroke: #000000; stroke-width: 0.8"/>
      </g>
     </g>
     <g id="text_15">
      <!-- 175000 -->
      <g transform="translate(7.2 16.635175) scale(0.1 -0.1)">
       <use xlink:href="#SimHei-31"/>
       <use xlink:href="#SimHei-37" x="50"/>
       <use xlink:href="#SimHei-35" x="100"/>
       <use xlink:href="#SimHei-30" x="150"/>
       <use xlink:href="#SimHei-30" x="200"/>
       <use xlink:href="#SimHei-30" x="250"/>
      </g>
     </g>
    </g>
   </g>
   <g id="line2d_15">
    <path d="M 60.432727 116.45945 
L 61.639621 199.158452 
L 62.846516 174.294635 
L 64.05341 195.787135 
L 65.260304 162.480896 
L 66.467198 176.531348 
L 67.674093 192.439838 
L 68.880987 184.499016 
L 71.294775 143.432813 
L 72.501669 23.975716 
L 73.708564 98.055676 
L 74.915458 193.718565 
L 76.122352 167.624062 
L 77.329246 19.296 
L 78.536141 186.916587 
L 79.743035 157.566629 
L 80.949929 143.647583 
L 82.156823 155.65631 
L 83.363717 182.687604 
L 84.570612 131.79428 
L 85.777506 191.617497 
L 86.9844 140.086929 
L 88.191294 159.272069 
L 90.605083 185.485261 
L 91.811977 191.305233 
L 93.018871 179.939402 
L 94.225765 155.678918 
L 95.43266 170.62801 
L 96.639554 193.773671 
L 97.846448 166.016116 
L 100.260237 128.767725 
L 101.467131 152.041964 
L 102.674025 152.101309 
L 103.880919 194.686441 
L 105.087813 163.818967 
L 106.294708 167.043336 
L 107.501602 157.329252 
L 108.708496 155.755217 
L 109.91539 191.611845 
L 111.122285 200.027421 
L 112.329179 182.027753 
L 113.536073 180.94684 
L 114.742967 181.021727 
L 115.949861 164.767062 
L 117.156756 179.593227 
L 118.36365 154.3903 
L 119.570544 181.695708 
L 120.777438 124.518961 
L 123.191227 193.249463 
L 124.398121 183.151054 
L 125.605015 73.608682 
L 126.811909 151.425915 
L 128.018804 159.797689 
L 129.225698 140.095407 
L 130.432592 183.771343 
L 131.639486 173.8001 
L 132.846381 160.747197 
L 134.053275 160.019524 
L 135.260169 124.311256 
L 136.467063 101.804253 
L 137.673957 168.218917 
L 138.880852 33.103423 
L 140.087746 123.522826 
L 141.29464 103.817718 
L 142.501534 76.635237 
L 143.708429 102.389217 
L 144.915323 104.753096 
L 146.122217 143.314125 
L 147.329111 98.983989 
L 148.536005 129.119551 
L 149.7429 95.328668 
L 150.949794 105.746405 
L 153.363582 89.375877 
L 154.570477 105.63902 
L 155.777371 53.173074 
L 156.984265 95.705927 
L 158.191159 101.523074 
L 159.398053 116.539989 
L 160.604948 92.259723 
L 161.811842 123.690968 
L 163.018736 124.243434 
L 164.22563 101.792949 
L 165.432525 83.595467 
L 166.639419 131.903078 
L 167.846313 110.738384 
L 169.053207 83.403304 
L 170.260101 97.941226 
L 171.466996 107.184796 
L 172.67389 114.76814 
L 173.880784 123.926932 
L 175.087678 73.422171 
L 176.294572 103.423502 
L 177.501467 106.043126 
L 178.708361 101.041256 
L 179.915255 84.944841 
L 181.122149 141.133931 
L 182.329044 90.377664 
L 183.535938 114.924978 
L 184.742832 94.129067 
L 185.949726 108.641555 
L 187.15662 105.985195 
L 188.363515 156.19606 
L 189.570409 91.348366 
L 190.777303 115.621566 
L 191.984197 105.654563 
L 193.191092 100.040882 
L 194.397986 112.002982 
L 195.60488 66.156743 
L 196.811774 110.174614 
L 198.018668 109.784638 
L 199.225563 130.053516 
L 200.432457 111.966245 
L 201.639351 102.321395 
L 202.846245 115.867421 
L 204.05314 101.925767 
L 205.260034 79.260512 
L 206.466928 194.422218 
L 207.673822 196.459703 
L 208.880716 223.048741 
L 210.087611 217.401149 
L 211.294505 193.573031 
L 212.501399 198.594682 
L 213.708293 192.743624 
L 214.915188 224.112699 
L 216.122082 198.194815 
L 217.328976 216.36969 
L 218.53587 225.114486 
L 219.742764 196.526112 
L 220.949659 201.59863 
L 222.156553 216.190245 
L 223.363447 217.897098 
L 224.570341 197.751146 
L 225.777236 203.287115 
L 226.98413 200.483807 
L 228.191024 194.371352 
L 229.397918 226.910355 
L 230.604812 200.707054 
L 231.811707 222.328133 
L 233.018601 199.154213 
L 234.225495 206.787011 
L 235.432389 222.872122 
L 236.639284 209.839 
L 237.846178 215.160198 
L 239.053072 204.496607 
L 240.259966 219.989688 
L 241.46686 222.832559 
L 242.673755 208.447236 
L 243.880649 198.714784 
L 245.087543 230.90196 
L 246.294437 197.235417 
L 247.501332 227.18023 
L 248.708226 222.24053 
L 249.91512 228.730244 
L 251.122014 199.891777 
L 252.328908 204.854085 
L 253.535803 192.992305 
L 254.742697 217.849057 
L 255.949591 195.610516 
L 257.156485 201.183221 
L 259.570274 197.252372 
L 260.777168 223.212645 
L 261.984062 208.115191 
L 263.190956 222.198141 
L 264.397851 216.830315 
L 265.604745 213.877233 
L 266.811639 202.125664 
L 268.018533 193.881055 
L 269.225428 130.491533 
L 270.432322 98.434349 
L 271.639216 135.251788 
L 272.84611 126.618616 
L 274.053004 119.539698 
L 275.259899 79.954275 
L 276.466793 116.757584 
L 277.673687 174.671895 
L 278.880581 171.998579 
L 280.087475 101.193855 
L 281.29437 152.211519 
L 282.501264 147.201171 
L 283.708158 119.296669 
L 284.915052 130.34176 
L 286.121947 101.96533 
L 287.328841 65.915127 
L 288.535735 151.212558 
L 289.742629 108.712203 
L 290.949523 149.603199 
L 292.156418 115.873073 
L 293.363312 122.899712 
L 294.570206 76.717189 
L 295.7771 113.536041 
L 296.983995 89.908562 
L 298.190889 126.884252 
L 299.397783 75.95843 
L 300.604677 133.28919 
L 301.811571 106.00215 
L 303.018466 125.338477 
L 304.22536 156.156497 
L 305.432254 101.191029 
L 306.639148 117.968489 
L 307.846043 52.333777 
L 309.052937 87.336979 
L 310.259831 114.821832 
L 311.466725 121.596964 
L 312.673619 138.877437 
L 313.880514 119.888699 
L 315.087408 132.858237 
L 316.294302 137.78946 
L 317.501196 140.900793 
L 318.708091 124.849593 
L 319.914985 34.507903 
L 321.121879 111.865925 
L 322.328773 146.200797 
L 323.535667 114.970193 
L 324.742562 125.465643 
L 325.949456 209.502716 
L 327.15635 201.340059 
L 328.363244 189.900753 
L 329.570139 203.390261 
L 330.777033 199.069436 
L 331.983927 183.682327 
L 333.190821 197.951786 
L 334.397715 191.674015 
L 335.60461 171.520999 
L 336.811504 208.245183 
L 338.018398 197.619741 
L 339.225292 189.231011 
L 340.432187 205.301993 
L 341.639081 191.737598 
L 342.845975 190.043462 
L 344.052869 201.55059 
L 345.259763 197.224113 
L 346.466658 198.529686 
L 347.673552 192.434187 
L 348.880446 182.161984 
L 350.08734 199.648749 
L 351.294235 197.467142 
L 352.501129 176.049529 
L 353.708023 202.969199 
L 354.914917 196.025925 
L 356.121811 191.375881 
L 357.328706 204.630838 
L 358.5356 193.565966 
L 360.949388 203.664375 
L 362.156283 183.525488 
L 363.363177 187.729037 
L 364.570071 195.938322 
L 365.776965 213.618662 
L 366.983859 212.106797 
L 368.190754 200.172956 
L 369.397648 206.4041 
L 370.604542 203.039847 
L 371.811436 209.57619 
L 373.018331 204.185756 
L 374.225225 202.484555 
L 375.432119 201.05888 
L 376.639013 195.17815 
L 377.845907 205.451766 
L 379.052802 186.184675 
L 380.259696 182.543483 
L 381.46659 188.589529 
L 382.673484 198.938031 
L 383.880379 194.368526 
L 385.087273 176.238865 
L 385.087273 176.238865 
" clip-path="url(#pb9479987af)" style="fill: none; stroke: #1f77b4; stroke-width: 1.5; stroke-linecap: square"/>
   </g>
   <g id="line2d_16">
    <path d="M 60.432727 112.615144 
L 61.639621 142.720062 
L 62.846516 164.124251 
L 64.05341 132.564512 
L 65.260304 134.036183 
L 66.467198 159.018731 
L 67.674093 153.72443 
L 68.880987 160.719741 
L 70.087881 133.094438 
L 71.294775 137.369782 
L 72.501669 107.821333 
L 73.708564 115.119409 
L 74.915458 146.434611 
L 76.122352 145.865342 
L 77.329246 103.835111 
L 78.536141 127.351021 
L 79.743035 139.557825 
L 80.949929 136.593749 
L 82.156823 152.522138 
L 83.363717 147.165272 
L 84.570612 100.486496 
L 85.777506 169.844928 
L 86.9844 137.649668 
L 88.191294 156.765722 
L 89.398189 136.499961 
L 90.605083 165.408443 
L 91.811977 171.146683 
L 93.018871 138.6825 
L 94.225765 185.041417 
L 95.43266 128.875602 
L 96.639554 169.81213 
L 97.846448 130.225321 
L 99.053342 139.132284 
L 100.260237 121.136438 
L 101.467131 133.40278 
L 102.674025 119.04442 
L 103.880919 162.771117 
L 105.087813 175.72205 
L 106.294708 128.823417 
L 107.501602 129.057984 
L 108.708496 155.467739 
L 111.122285 145.157806 
L 112.329179 176.881578 
L 113.536073 122.286453 
L 114.742967 123.554536 
L 115.949861 127.001155 
L 117.156756 115.047048 
L 118.36365 135.208241 
L 119.570544 181.345701 
L 120.777438 148.618351 
L 121.984333 129.15127 
L 123.191227 179.031569 
L 124.398121 160.739845 
L 125.605015 129.040692 
L 126.811909 123.197441 
L 128.018804 112.015733 
L 130.432592 144.927356 
L 131.639486 129.005163 
L 132.846381 148.097903 
L 134.053275 134.877048 
L 135.260169 147.826024 
L 136.467063 128.931778 
L 137.673957 139.063304 
L 138.880852 96.818068 
L 140.087746 101.732245 
L 141.29464 120.690866 
L 142.501534 112.402746 
L 143.708429 108.341693 
L 144.915323 119.276692 
L 146.122217 116.886619 
L 147.329111 115.296401 
L 148.536005 125.129255 
L 149.7429 111.805795 
L 150.949794 115.32716 
L 153.363582 106.776427 
L 154.570477 95.491629 
L 155.777371 95.157989 
L 156.984265 106.615467 
L 158.191159 116.908486 
L 159.398053 107.864688 
L 160.604948 105.901934 
L 161.811842 122.328216 
L 163.018736 111.788115 
L 165.432525 106.253146 
L 166.639419 116.503054 
L 167.846313 107.117422 
L 169.053207 111.366716 
L 170.260101 114.184814 
L 171.466996 134.036084 
L 172.67389 96.514469 
L 173.880784 114.575867 
L 175.087678 118.277365 
L 176.294572 111.46142 
L 177.501467 119.287153 
L 178.708361 110.869832 
L 179.915255 100.370435 
L 181.122149 124.69256 
L 182.329044 107.361603 
L 183.535938 100.032367 
L 184.742832 107.862355 
L 185.949726 106.996695 
L 187.15662 107.567515 
L 188.363515 122.604245 
L 189.570409 95.25487 
L 190.777303 115.274499 
L 191.984197 99.252695 
L 193.191092 109.877742 
L 195.60488 121.32009 
L 196.811774 111.521185 
L 198.018668 110.308036 
L 199.225563 114.900367 
L 200.432457 116.371242 
L 201.639351 125.763501 
L 202.846245 97.113118 
L 204.05314 98.094934 
L 205.260034 116.519859 
L 206.466928 190.391766 
L 207.673822 177.452997 
L 208.880716 222.416791 
L 210.087611 230.741 
L 211.294505 183.014379 
L 212.501399 202.400806 
L 213.708293 188.355002 
L 214.915188 212.66499 
L 216.122082 177.501323 
L 217.328976 230.878758 
L 218.53587 227.137657 
L 219.742764 185.402965 
L 220.949659 188.517528 
L 222.156553 230.736724 
L 223.363447 238.031494 
L 224.570341 189.722397 
L 225.777236 193.876876 
L 226.98413 190.229476 
L 228.191024 194.313926 
L 229.397918 233.658107 
L 230.604812 164.983885 
L 231.811707 240.347033 
L 233.018601 186.381238 
L 234.225495 231.690101 
L 235.432389 222.563447 
L 236.639284 201.88239 
L 237.846178 235.752956 
L 239.053072 184.534173 
L 240.259966 237.060367 
L 241.46686 230.806913 
L 242.673755 199.888252 
L 243.880649 186.428659 
L 245.087543 247.339841 
L 246.294437 185.247358 
L 247.501332 233.756437 
L 248.708226 214.988344 
L 249.91512 261.216 
L 251.122014 210.047218 
L 252.328908 188.229724 
L 253.535803 183.124325 
L 254.742697 231.031087 
L 255.949591 190.359435 
L 257.156485 190.229476 
L 258.36338 185.308935 
L 259.570274 189.767401 
L 260.777168 232.494527 
L 261.984062 209.689039 
L 263.190956 228.458901 
L 264.397851 231.048943 
L 265.604745 199.379431 
L 266.811639 189.315085 
L 268.018533 184.39167 
L 269.225428 144.364062 
L 270.432322 147.28174 
L 271.639216 148.860244 
L 272.84611 141.351979 
L 274.053004 124.537243 
L 275.259899 142.703864 
L 276.466793 141.631263 
L 277.673687 169.240701 
L 278.880581 155.563998 
L 280.087475 127.110298 
L 281.29437 154.477383 
L 282.501264 135.288689 
L 283.708158 155.94869 
L 284.915052 159.006263 
L 286.121947 124.773587 
L 287.328841 126.323887 
L 288.535735 173.891111 
L 289.742629 144.202329 
L 290.949523 168.504743 
L 292.156418 124.491186 
L 293.363312 147.122955 
L 294.570206 135.978166 
L 295.7771 141.68495 
L 296.983995 141.501243 
L 298.190889 152.556947 
L 299.397783 126.893271 
L 300.604677 123.240364 
L 301.811571 121.775232 
L 303.018466 135.377596 
L 304.22536 171.742668 
L 305.432254 127.237088 
L 306.639148 150.926071 
L 307.846043 152.774123 
L 309.052937 134.514836 
L 310.259831 121.865883 
L 311.466725 122.224605 
L 312.673619 172.099349 
L 313.880514 135.05134 
L 315.087408 137.439861 
L 316.294302 136.774982 
L 317.501196 150.899036 
L 318.708091 169.862653 
L 319.914985 128.305019 
L 321.121879 139.971238 
L 322.328773 139.5386 
L 323.535667 137.295013 
L 324.742562 120.729481 
L 325.949456 196.838964 
L 327.15635 197.987421 
L 328.363244 187.389743 
L 329.570139 193.073362 
L 330.777033 192.62 
L 331.983927 199.961383 
L 333.190821 202.980782 
L 334.397715 180.215309 
L 335.60461 195.974239 
L 336.811504 177.064358 
L 338.018398 197.800551 
L 339.225292 169.276738 
L 340.432187 191.154173 
L 341.639081 188.078519 
L 342.845975 200.590416 
L 344.052869 180.987702 
L 345.259763 174.419801 
L 346.466658 181.141401 
L 347.673552 169.788455 
L 348.880446 190.973172 
L 350.08734 190.923575 
L 351.294235 204.068168 
L 352.501129 199.899408 
L 353.708023 174.040579 
L 354.914917 193.862807 
L 356.121811 197.403295 
L 357.328706 172.462459 
L 358.5356 195.574994 
L 359.742494 189.618397 
L 360.949388 202.773093 
L 362.156283 199.646233 
L 363.363177 205.496133 
L 364.570071 195.574257 
L 365.776965 195.085938 
L 366.983859 147.966468 
L 368.190754 208.098203 
L 369.397648 186.752575 
L 370.604542 197.048183 
L 371.811436 201.698232 
L 373.018331 186.753039 
L 374.225225 199.653774 
L 375.432119 207.795324 
L 376.639013 185.14326 
L 377.845907 196.527443 
L 379.052802 191.052245 
L 380.259696 205.243393 
L 381.46659 196.265069 
L 382.673484 182.892439 
L 383.880379 178.40376 
L 385.087273 204.262775 
L 385.087273 204.262775 
" clip-path="url(#pb9479987af)" style="fill: none; stroke: #ff7f0e; stroke-width: 1.5; stroke-linecap: square"/>
   </g>
   <g id="patch_3">
    <path d="M 44.2 273.312 
L 44.2 7.2 
" style="fill: none; stroke: #000000; stroke-width: 0.8; stroke-linejoin: miter; stroke-linecap: square"/>
   </g>
   <g id="patch_4">
    <path d="M 401.32 273.312 
L 401.32 7.2 
" style="fill: none; stroke: #000000; stroke-width: 0.8; stroke-linejoin: miter; stroke-linecap: square"/>
   </g>
   <g id="patch_5">
    <path d="M 44.2 273.312 
L 401.32 273.312 
" style="fill: none; stroke: #000000; stroke-width: 0.8; stroke-linejoin: miter; stroke-linecap: square"/>
   </g>
   <g id="patch_6">
    <path d="M 44.2 7.2 
L 401.32 7.2 
" style="fill: none; stroke: #000000; stroke-width: 0.8; stroke-linejoin: miter; stroke-linecap: square"/>
   </g>
   <g id="legend_1">
    <g id="patch_7">
     <path d="M 327.32 41.7 
L 394.32 41.7 
Q 396.32 41.7 396.32 39.7 
L 396.32 14.2 
Q 396.32 12.2 394.32 12.2 
L 327.32 12.2 
Q 325.32 12.2 325.32 14.2 
L 325.32 39.7 
Q 325.32 41.7 327.32 41.7 
z
" style="fill: #ffffff; opacity: 0.8; stroke: #cccccc; stroke-linejoin: miter"/>
    </g>
    <g id="line2d_17">
     <path d="M 329.32 19.7 
L 339.32 19.7 
L 349.32 19.7 
" style="fill: none; stroke: #1f77b4; stroke-width: 1.5; stroke-linecap: square"/>
    </g>
    <g id="text_16">
     <!-- real -->
     <g transform="translate(357.32 23.2) scale(0.1 -0.1)">
      <defs>
       <path id="SimHei-72" d="M 2500 2425 
Q 2025 2500 1700 2287 
Q 1375 2075 1150 1550 
L 1150 125 
L 650 125 
L 650 2925 
L 1150 2925 
L 1150 2200 
Q 1375 2600 1712 2787 
Q 2050 2975 2500 2975 
L 2500 2425 
z
" transform="scale(0.015625)"/>
       <path id="SimHei-65" d="M 2850 1075 
Q 2800 625 2450 350 
Q 2100 75 1625 75 
Q 1025 75 637 462 
Q 250 850 250 1525 
Q 250 2200 637 2587 
Q 1025 2975 1625 2975 
Q 2150 2975 2487 2637 
Q 2825 2300 2825 1525 
L 800 1525 
Q 800 975 1037 750 
Q 1275 525 1625 525 
Q 1900 525 2075 662 
Q 2250 800 2300 1075 
L 2850 1075 
z
M 2250 1925 
Q 2200 2275 2025 2412 
Q 1850 2550 1575 2550 
Q 1325 2550 1125 2412 
Q 925 2275 825 1925 
L 2250 1925 
z
" transform="scale(0.015625)"/>
       <path id="SimHei-61" d="M 2875 125 
L 2275 125 
Q 2225 175 2200 262 
Q 2175 350 2175 475 
Q 2000 275 1750 175 
Q 1500 75 1225 75 
Q 825 75 550 275 
Q 275 475 275 850 
Q 275 1225 525 1450 
Q 775 1675 1300 1750 
Q 1650 1800 1912 1875 
Q 2175 1950 2175 2075 
Q 2175 2225 2062 2375 
Q 1950 2525 1575 2525 
Q 1275 2525 1137 2412 
Q 1000 2300 950 2100 
L 400 2100 
Q 450 2500 762 2737 
Q 1075 2975 1575 2975 
Q 2125 2975 2400 2725 
Q 2675 2475 2675 2025 
L 2675 650 
Q 2675 500 2725 375 
Q 2775 250 2875 125 
z
M 2175 1050 
L 2175 1550 
Q 2025 1500 1887 1462 
Q 1750 1425 1425 1375 
Q 1050 1325 937 1200 
Q 825 1075 825 900 
Q 825 750 937 637 
Q 1050 525 1275 525 
Q 1500 525 1762 650 
Q 2025 775 2175 1050 
z
" transform="scale(0.015625)"/>
       <path id="SimHei-6c" d="M 1825 125 
L 1325 125 
L 1325 4400 
L 1825 4400 
L 1825 125 
z
" transform="scale(0.015625)"/>
      </defs>
      <use xlink:href="#SimHei-72"/>
      <use xlink:href="#SimHei-65" x="50"/>
      <use xlink:href="#SimHei-61" x="100"/>
      <use xlink:href="#SimHei-6c" x="150"/>
     </g>
    </g>
    <g id="line2d_18">
     <path d="M 329.32 32.95 
L 339.32 32.95 
L 349.32 32.95 
" style="fill: none; stroke: #ff7f0e; stroke-width: 1.5; stroke-linecap: square"/>
    </g>
    <g id="text_17">
     <!-- predict -->
     <g transform="translate(357.32 36.45) scale(0.1 -0.1)">
      <defs>
       <path id="SimHei-70" d="M 2825 1525 
Q 2825 800 2475 425 
Q 2125 50 1625 50 
Q 1350 50 1150 162 
Q 950 275 800 500 
L 800 -800 
L 300 -800 
L 300 2925 
L 800 2925 
L 800 2550 
Q 950 2775 1150 2875 
Q 1350 2975 1625 2975 
Q 2125 2975 2475 2612 
Q 2825 2250 2825 1525 
z
M 2275 1525 
Q 2275 2000 2087 2262 
Q 1900 2525 1525 2525 
Q 1225 2525 1012 2262 
Q 800 2000 800 1525 
Q 800 1050 1012 775 
Q 1225 500 1525 500 
Q 1900 500 2087 775 
Q 2275 1050 2275 1525 
z
" transform="scale(0.015625)"/>
       <path id="SimHei-64" d="M 2750 125 
L 2250 125 
L 2250 500 
Q 2100 275 1900 175 
Q 1700 75 1425 75 
Q 925 75 575 437 
Q 225 800 225 1525 
Q 225 2250 575 2625 
Q 925 3000 1425 3000 
Q 1700 3000 1900 2887 
Q 2100 2775 2250 2550 
L 2250 4400 
L 2750 4400 
L 2750 125 
z
M 2250 1525 
Q 2250 2000 2037 2275 
Q 1825 2550 1525 2550 
Q 1150 2550 962 2275 
Q 775 2000 775 1525 
Q 775 1050 962 787 
Q 1150 525 1525 525 
Q 1825 525 2037 787 
Q 2250 1050 2250 1525 
z
" transform="scale(0.015625)"/>
       <path id="SimHei-69" d="M 1800 3725 
L 1300 3725 
L 1300 4375 
L 1800 4375 
L 1800 3725 
z
M 1800 125 
L 1300 125 
L 1300 2925 
L 1800 2925 
L 1800 125 
z
" transform="scale(0.015625)"/>
       <path id="SimHei-63" d="M 2850 1250 
Q 2850 725 2487 400 
Q 2125 75 1575 75 
Q 1025 75 625 462 
Q 225 850 225 1525 
Q 225 2200 625 2587 
Q 1025 2975 1575 2975 
Q 2125 2975 2450 2687 
Q 2775 2400 2775 2000 
L 2225 2000 
Q 2200 2300 2012 2412 
Q 1825 2525 1575 2525 
Q 1275 2525 1025 2287 
Q 775 2050 775 1525 
Q 775 1000 1025 762 
Q 1275 525 1575 525 
Q 1900 525 2100 700 
Q 2300 875 2300 1250 
L 2850 1250 
z
" transform="scale(0.015625)"/>
       <path id="SimHei-74" d="M 2750 200 
Q 2625 150 2462 112 
Q 2300 75 2025 75 
Q 1575 75 1300 325 
Q 1025 575 1025 1025 
L 1025 2525 
L 175 2525 
L 175 2925 
L 1025 2925 
L 1025 3900 
L 1525 3900 
L 1525 2925 
L 2550 2925 
L 2550 2525 
L 1525 2525 
L 1525 1000 
Q 1525 800 1625 662 
Q 1725 525 2000 525 
Q 2275 525 2450 575 
Q 2625 625 2750 700 
L 2750 200 
z
" transform="scale(0.015625)"/>
      </defs>
      <use xlink:href="#SimHei-70"/>
      <use xlink:href="#SimHei-72" x="50"/>
      <use xlink:href="#SimHei-65" x="100"/>
      <use xlink:href="#SimHei-64" x="150"/>
      <use xlink:href="#SimHei-69" x="200"/>
      <use xlink:href="#SimHei-63" x="250"/>
      <use xlink:href="#SimHei-74" x="300"/>
     </g>
    </g>
   </g>
  </g>
 </g>
 <defs>
  <clipPath id="pb9479987af">
   <rect x="44.2" y="7.2" width="357.12" height="266.112"/>
  </clipPath>
 </defs>
</svg>
